<?xml version="1.0" standalone="no"?>
<!DOCTYPE svg PUBLIC "-//W3C//DTD SVG 1.1//EN" "http://www.w3.org/Graphics/SVG/1.1/DTD/svg11.dtd" >
<svg xmlns="http://www.w3.org/2000/svg">
<metadata>Generated by IcoMoon</metadata>
<defs>
<font id="icomoon" horiz-adv-x="1024">
<font-face units-per-em="1024" ascent="896" descent="-128" />
<missing-glyph horiz-adv-x="1024" />
<glyph unicode="&#x20;" d="" />
<glyph unicode="&#xe600;" glyph-name="zjt" d="M328.544 289.76l0.448 0.448 355.296-363.36 100.704 103.008-355.264 363.36 337.92 345.536-97.664 99.68-337.792-345.44-0.352 0.352-100.8-102.976 0.416-0.384-0.416-0.416z" />
<glyph unicode="&#xe601;" glyph-name="cate" d="M932.995 482.458c43.273 43.082 67.006 100.365 67.006 161.365s-23.827 118.283-67.006 161.365c-43.273 43.082-100.65 66.815-161.744 66.815s-118.474-23.733-161.744-66.815c-43.176-43.082-67.006-100.365-67.006-161.365v-229.514l228.844 1.334c61.094 0.094 118.474 23.827 161.65 66.815zM603.5 475.691v168.132c0 92.167 75.298 167.177 167.75 167.177s167.75-75.010 167.75-167.177-75.298-167.177-167.75-167.177l-167.75-0.952zM252.75 872c-50.992 0-99.316-16.393-139.633-47.369-39.077-30.024-67.767-72.533-80.825-119.713-4.481-16.202 4.957-33.074 21.256-37.552 16.202-4.481 33.074 4.957 37.552 21.256 20.016 72.057 86.449 122.382 161.65 122.382 92.452 0 167.75-75.010 167.75-167.177v-168.132l-167.75 0.952c-73.485 0-137.823 46.893-159.934 116.663-5.148 16.013-22.208 24.973-38.316 19.825-16.013-5.148-24.973-22.208-19.825-38.316 14.583-45.844 42.794-85.306 81.683-114.184 39.65-29.357 86.734-44.988 136.298-44.988l228.844-1.334v229.514c0 61-23.827 118.283-67.006 161.365-43.273 43.082-100.65 66.815-161.744 66.815zM771.344 352.357l-228.844 1.334v-229.514c0-61 23.827-118.283 67.006-161.365s100.65-66.815 161.744-66.815 118.474 23.733 161.744 66.815c43.273 43.082 67.006 100.365 67.006 161.365s-23.827 118.283-67.006 161.365c-43.176 42.985-100.556 66.718-161.65 66.815zM771.25-43c-92.452 0-167.75 75.010-167.75 167.177v168.132l167.75-0.952c92.452 0 167.75-75.010 167.75-167.177s-75.298-167.177-167.75-167.177zM451 154.677c-16.869 0-30.5-13.631-30.5-30.5 0-13.249-1.525-26.498-4.669-39.174-3.908-16.393 6.1-32.883 22.493-36.791 2.383-0.573 4.766-0.858 7.149-0.858 13.725 0 26.21 9.341 29.642 23.351 4.193 17.442 6.291 35.457 6.291 53.469 0.094 16.869-13.534 30.5-30.406 30.5zM91.005 285.542c-43.176-43.082-67.006-100.459-67.006-161.365s23.827-118.283 67.006-161.365c43.176-43.082 100.65-66.815 161.744-66.815 65.384 0 127.815 28.023 171.182 76.823 11.151 12.582 10.008 31.834-2.574 43.082-12.582 11.151-31.834 10.008-43.082-2.574-31.74-35.742-77.49-56.331-125.526-56.331-92.452 0-167.75 75.010-167.75 167.177s75.298 167.177 167.75 167.177l167.75 0.952v-54.042c0-16.869 13.631-30.5 30.5-30.5s30.5 13.631 30.5 30.5v115.424l-228.844-1.334c-61.094-0.094-118.474-23.827-161.65-66.815z" />
<glyph unicode="&#xe602;" glyph-name="view" d="M1016.444 268.121l-1.532 2.553c-146.501 218.448-311.027 329.205-489.084 329.205-299.511 0-513.951-328.566-515.56-331.758-10.085-19.583-10.085-40.34 0-60l2.298-3.677c162.56-216.636 326.371-321.954 500.777-321.954 76.799 0 146.858 21.115 208.951 52.979 32.426 16.622 68.706 38.068 90.458 57.216 4.545 4.034 6.97 11.029 6.97 17.923 0 14.119-11.439 25.531-25.531 25.531-5.617 0-10.519-2.196-14.732-5.234 0 0-60.561-40.953-94.365-56.91-52.007-24.613-109.582-40.417-171.752-40.417-156.713 0-306.66 97.991-458.395 299.486-1.711 4.111-1.506 7.379 0.511 11.285 1.737 3.038 201.343 304.464 470.369 304.464 159.598 0 309.519-102.662 445.731-305.154 0.42-0.915 0.805-2.003 1.094-3.13l0.030-0.138-2.247-3.37c-16.825-25.531-88.135-112.518-95.872-120.995s-10.953-11.847-10.953-20.4c0-14.119 11.439-25.531 25.531-25.531 7.302 0 13.047 2.655 18.459 8.068 5.412 5.388 87.191 103.020 105.471 130.748l0.791 1.2c12.436 14.374 13.534 36.69 2.582 58.008zM394.212 244.275c0-62.476 55.684-117.267 119.13-117.267 64.544 0 119.105 53.718 119.105 117.267s-54.561 117.216-119.105 117.216c-63.446 0-119.13-54.765-119.13-117.216zM581.384 244.275c0-34.646-32.451-66.204-68.042-66.204-35.642 0-68.067 31.557-68.067 66.204 0 34.62 32.451 66.153 68.067 66.153s68.042-31.532 68.042-66.153z" />
<glyph unicode="&#xe603;" glyph-name="run" d="M26.472 2.028l249.422 144.072 87.261 134.618c7.959-21.729 23.587-39.047 43.531-49.013l0.51-0.23 38.314-18.68-87.579-135.051c-4.568-7.045-10.704-12.862-17.953-17.089l-260.466-150.412c-7.604-4.475-16.751-7.118-26.516-7.118-19.516 0-36.564 10.558-45.748 26.274l-0.136 0.251c-4.475 7.606-7.12 16.753-7.12 26.519 0 19.498 10.539 36.534 26.231 45.723l0.249 0.136zM797.259 572.066c-67.063 1.625-120.807 56.374-120.807 123.676s53.744 122.053 120.657 123.675l0.15 0.003c67.585-0.946 122.011-55.955 122.011-123.676s-54.426-122.732-121.924-123.676l-0.089-0.002zM738.084 452.536c18.117 16.325 29.459 39.87 29.459 66.063 0 1.63-0.043 3.248-0.131 4.856l0.010-0.224 57.379-38.494 107.054 117.28c9.703 10.673 23.644 17.347 39.143 17.347 13.799 0 26.361-5.289 35.77-13.95l-0.037 0.034c10.624-9.729 17.261-23.66 17.261-39.143 0-13.786-5.263-26.345-13.888-35.773l0.037 0.040-137.846-151.026c-9.707-10.632-23.627-17.277-39.098-17.277-11.025 0-21.262 3.375-29.735 9.146l0.184-0.118-89.443 60.060 23.884 21.179zM628.189 163.142l-205.519 100.078c-17.756 8.823-29.745 26.837-29.745 47.65 0 15.726 6.845 29.853 17.716 39.566l0.051 0.045 181.999 161.91-108.577 71.946-158.866-45.448c-4.351-1.285-9.35-2.024-14.522-2.024-24.101 0-44.452 16.055-50.943 38.053l-0.094 0.375c-1.294 4.364-2.039 9.378-2.039 14.566 0 24.080 16.042 44.416 38.021 50.9l0.375 0.094 182.408 52.152c4.367 1.296 9.384 2.040 14.574 2.040 10.907 0 21.045-3.291 29.476-8.933l-0.192 0.121 186.361-123.529c13.382-8.922 22.38-23.512 23.556-40.26l0.010-0.166c0.089-1.155 0.141-2.502 0.141-3.86 0-15.681-6.84-29.764-17.699-39.429l-0.053-0.046-174.386-155.025 187.021-91.102c13.385-6.604 23.403-18.319 27.607-32.531l0.094-0.374c1.339-4.426 2.111-9.512 2.111-14.778 0-10.306-2.951-19.921-8.056-28.049l0.129 0.22-141.414-228.992c-9.636-14.403-25.838-23.758-44.224-23.758-29.293 0-53.039 23.747-53.039 53.039 0 9.723 2.616 18.835 7.182 26.669l-0.136-0.252 110.667 179.136z" />
<glyph unicode="&#xe609;" glyph-name="php" d="M656.083 842.968c25.57-93.761 102.284-389.254-228.010-478.752 228.010 127.147 252.468 349.381 132.117 500.77-283.414 74.584-603.055-17.758-564.721-850.956 8.867-19.541 31.117-24.783 61.109-23.442 17.049 187.523 155.050 407.531 228.72 336.69 55.404-53.275 43.2-253.405 40.487-418.977 39.407-20.938 124.649-30.309 160.531-1.048-17.758 277.255 261.395 275.124 223.889 0.025 38.575-26.444 129.027-25.495 163.364 0.076 303.169 524.342 72.319 816.279-217.489 935.612zM193.669 582.993c-17.654 0-31.964 14.311-31.964 31.964s14.311 31.964 31.964 31.964c17.653 0 31.964-14.311 31.964-31.964s-14.311-31.964-31.964-31.964z" />
<glyph unicode="&#xe610;" glyph-name="music" d="M237.489 128.928c70.939 0 130.884-38.433 130.884-83.947s-59.945-83.976-130.884-83.976c-70.939 0-130.884 38.462-130.884 83.976s59.945 83.947 130.884 83.947zM823.134 42.285c-70.939 0-130.884 38.433-130.884 83.947s59.945 83.947 130.884 83.947c70.939 0 130.855-38.433 130.855-83.947s-59.916-83.947-130.855-83.947zM427.637 585.883v152.96l526.352 75.473v-152.96l-526.352-75.473zM237.489-98.259c106.615 0 190.148 62.938 190.148 143.241v481.044l526.352 75.473v-370.695c-33.869 24.002-79.621 38.64-130.855 38.64-106.615 0-190.148-62.909-190.148-143.211s83.533-143.211 190.148-143.211 190.118 62.909 190.118 143.211v719.552h-0.030c0 0.415 0.208 0.77 0.178 1.186-0.626 15.952-13.709 28.647-29.758 28.647-0.414 0-0.826-0.009-1.236-0.026l0.059 0.002c-0.948-0.030-1.719-0.504-2.667-0.622l-0.386 2.815-582.622-83.443c-0.237 0-0.445-0.118-0.711-0.149l-2.37-0.326 0.089-0.208c-14.43-2.037-25.412-14.298-25.424-29.127v-0.001h-0.030v-0.208c0-0.326-0.178-0.622-0.178-0.948 0-0.237 0.149-0.415 0.178-0.622v-613.203c-33.869 24.002-79.65 38.64-130.884 38.64-106.615 0-190.148-62.909-190.148-143.211s83.533-143.241 190.148-143.241z" />
<glyph unicode="&#xe611;" glyph-name="video" d="M794.186 853.134h-587.689c-10.469 0-18.954-8.485-18.954-18.954v-936.403c0-10.469 8.485-18.954 18.954-18.954h587.689c10.47 0 18.954 8.485 18.954 18.954v936.403c-0.001 10.469-8.485 18.954-18.954 18.954zM768.632-55.105c0-10.47-8.484-18.954-18.954-18.954h-498.674c-10.47 0-18.954 8.484-18.954 18.954v128.187c0 10.47 8.484 18.954 18.954 18.954h498.674c10.47 0 18.954-8.484 18.954-18.954v-128.187zM234.276 144.914v506.164c0 8.834 8.485 15.998 18.954 15.998h494.218c10.47 0 18.954-7.164 18.954-15.998v-506.163c0-8.835-8.484-15.999-18.954-15.999h-494.219c-10.468 0-18.953 7.164-18.953 15.998zM770.863 727.875c0-10.469-8.484-18.954-18.954-18.954h-503.132c-10.469 0-18.954 8.485-18.954 18.954v57.364c0 10.469 8.485 18.954 18.954 18.954h503.132c10.47 0 18.954-8.485 18.954-18.954v-57.364zM404.753 248.63l200.763 132.391c7.796 3.98 9.017 15.234-2.692 19.546l-198.072 120.812c-8.593 0-15.565-6.965-15.565-15.565v-241.623c0-8.595 6.967-15.566 15.565-15.566zM415.363 465.574c0 5.646 4.576 10.222 10.223 10.222l130.088-79.347c7.689-2.828 6.888-10.223 1.768-12.839l-131.856-86.953c-5.645 0-10.223 4.574-10.223 10.223v158.694zM640.758 2.754c0-13.848-8.61-25.075-19.236-25.075h-242.366c-10.621 0-19.236 11.222-19.236 25.075v0c0 13.849 8.61 25.076 19.236 25.076h242.366c10.621 0 19.236-11.223 19.236-25.076v0z" />
<glyph unicode="&#xe612;" glyph-name="top" d="M659.307-128h-294.581c-44.891 0-81.422 36.532-81.422 81.454v281.883c0 0.415-0.479 0.893-0.893 0.893h-153.273c-39.148 0-53.441 23.099-57.749 33.054-4.307 9.923-11.486 36.149 15.187 64.8l367.9 395.051c14.932 16.048 35.893 25.269 57.525 25.269 21.6 0 42.594-9.221 57.525-25.269l367.932-395.019c26.673-28.651 19.494-54.845 15.187-64.8-4.339-9.923-18.601-33.054-57.749-33.054h-153.241c-0.415 0-0.893-0.51-0.893-0.893v-281.883c-0.032-44.955-36.563-81.486-81.454-81.486v0zM180.504 316.823l101.842-0.032c44.923 0 81.454-36.532 81.454-81.454v-281.883c0-0.415 0.479-0.893 0.893-0.893h294.581c0.415 0 0.893 0.51 0.893 0.893v281.883c0 44.923 36.532 81.454 81.454 81.454h101.842l-331.464 355.935-331.496-355.903zM907.881 815.471h-791.73c-22.238 0-40.264 18.026-40.264 40.264-0.032 22.238 18.026 40.264 40.264 40.264h791.73c22.238 0 40.264-18.026 40.264-40.264s-18.026-40.264-40.264-40.264v0z" />
<glyph unicode="&#xe613;" glyph-name="lol" d="M926.252 726.168c10.416 0 17.394-5.416 20.624-8.646s8.646-10.208 8.646-20.624v-625.902c0-10.416-5.416-17.394-8.646-20.624s-10.208-8.646-20.624-8.646h-625.798c-10.416 0-17.394 5.416-20.624 8.646s-8.646 10.208-8.646 20.624v625.902c0 10.416 5.416 17.394 8.646 20.624s10.208 8.646 20.624 8.646h625.798M926.252 784.498h-625.798c-48.122 0-87.6-39.372-87.6-87.6v-625.902c0-48.122 39.372-87.6 87.6-87.6h625.902c48.122 0 87.6 39.372 87.6 87.6v625.902c-0.104 48.226-39.476 87.6-87.704 87.6zM381.178 660.86c38.852-9.478 50.622-35.102 50.83-66.246 0.834-123.742 0.624-247.382 0.208-371.124-0.104-22.394-6.666-42.498-29.894-53.226-11.562-5.416-21.978-13.228-32.81-20.104-11.562-7.292-22.916-14.582-34.478-21.978 3.646-2.292 6.458-2.604 9.166-2.604 113.014 0 226.132 0 339.148 0.104 56.142 0 112.286 0.104 168.428-0.208 8.332 0 12.29 1.562 13.646 10.832 4.27 27.916 9.686 55.518 14.582 83.328 3.854 21.874 7.604 43.748 11.458 65.622-3.854-1.562-6.042-3.854-7.916-6.354-16.040-21.144-36.144-37.082-60.204-48.33-53.018-24.894-109.16-30.832-166.448-26.040-27.186 2.292-54.372 7.396-80.724 14.374-22.812 6.042-26.144 13.436-26.144 36.872v133.222c0 67.912-0.312 135.826 0.208 203.738 0.208 27.602 9.478 56.456 48.852 64.684 1.666 0.312 3.124 1.666 6.25 3.438h-224.154z" />
<glyph unicode="&#xe616;" glyph-name="comment" d="M202.983-85.199c0-37.005 31.945-53.77 61.997-32.716l184.135 128.899h236.708c10.666 0 19.313 8.647 19.313 19.313s-8.647 19.313-19.313 19.313v0h-242.811c-4.136-0.002-7.968-1.303-11.107-3.517l0.062 0.040-189.119-132.375c-4.443-3.091-1.236 116.538-1.236 116.538 0 10.666-8.647 19.313-19.313 19.313v0h-77.255c0 0 0 0 0 0-32 0-57.942 25.942-57.942 57.942 0 0.040 0 0.080 0 0.124v-0.007 463.293c0 31.983 26.111 58.056 57.942 58.056h77.255c10.666 0 19.313 8.647 19.313 19.313s-8.647 19.313-19.313 19.313v0h-77.255c-53.322-0.131-96.501-43.353-96.568-96.678v-463.3c0-0.033 0-0.075 0-0.117 0-53.332 43.236-96.568 96.568-96.568h57.942v-96.182zM763.075 10.983h115.881c53.151 0 96.568 43.34 96.568 96.685v231.648c0 10.666-8.647 19.313-19.313 19.313s-19.313-8.647-19.313-19.313v0-231.648c0-31.983-26.111-58.056-57.942-58.056h-115.881c-10.666 0-19.313-8.647-19.313-19.313s8.647-19.313 19.313-19.313v0zM975.526 416.568v154.393c0 0.033 0 0.075 0 0.117 0 53.332-43.236 96.568-96.568 96.568h-579.408c-10.666 0-19.313-8.647-19.313-19.313s8.647-19.313 19.313-19.313v0h579.408c32.062 0 57.942-25.88 57.942-58.056v-154.393c0-10.666 8.647-19.313 19.313-19.313s19.313 8.647 19.313 19.313v0zM183.67 435.881h193.136c10.666 0 19.313 8.647 19.313 19.313s-8.647 19.313-19.313 19.313v0h-193.136c-10.666 0-19.313-8.647-19.313-19.313s8.647-19.313 19.313-19.313v0zM454.058 435.881h115.881c10.666 0 19.313 8.647 19.313 19.313s-8.647 19.313-19.313 19.313v0h-115.881c-10.666 0-19.313-8.647-19.313-19.313s8.647-19.313 19.313-19.313v0zM183.67 242.745h193.136c10.666 0 19.313 8.647 19.313 19.313s-8.647 19.313-19.313 19.313h-193.136c-10.666 0-19.313-8.647-19.313-19.313s8.647-19.313 19.313-19.313v0zM454.058 242.745h77.255c10.666 0 19.313 8.647 19.313 19.313s-8.647 19.313-19.313 19.313h-77.255c-10.666 0-19.313-8.647-19.313-19.313s8.647-19.313 19.313-19.313v0z" />
<glyph unicode="&#xe619;" glyph-name="tmall" d="M185.073 607.975h656.77v-126.813h-258.951v-528.029h-132.605v528.029h-265.214zM64.518-109.072c0-21.702 17.842-39.543 39.059-39.543h819.758c21.218 0 39.055 17.841 39.055 39.543v819.28c0 21.213-17.837 39.065-39.055 39.065h-819.758c-21.217 0-39.059-17.852-39.059-39.065v-819.28zM1007.243-50.724" />
<glyph unicode="&#xe61a;" glyph-name="weibo" d="M721.99 427.966c-33.468 6.369-17.531 24.695-17.531 24.695s32.672 54.194-6.382 93.247c-48.607 48.607-166.55-6.384-166.55-6.384-44.628-13.55-32.67 6.384-26.302 41.441 0 40.645-14.342 109.967-134.674 68.524-119.536-40.632-222.337-184.875-222.337-184.875-71.723-95.621-62.157-168.937-62.157-168.937 17.529-163.365 191.259-207.993 325.933-218.354 141.855-11.16 333.099 48.605 391.272 172.136 58.18 123.515-47.806 172.122-81.273 178.506v0zM422.357 122.749c-141.058-6.367-255.007 64.543-255.007 158.587 0 94.030 113.949 168.94 255.007 175.321 141.046 6.367 255.005-51.010 255.005-145.039 0-94.046-113.959-182.487-255.005-188.869v0zM394.463 395.282c-141.855-16.734-125.917-149.815-125.917-149.815s-0.797-41.429 38.259-62.951c82.883-44.624 168.143-17.529 211.175 37.462 43.033 55.771 18.323 191.242-123.517 175.305v0zM358.595 208.816c-26.286-3.185-47.811 11.956-47.811 34.261 0 22.319 19.134 45.423 45.423 47.811 30.282 3.199 50.213-14.342 50.213-36.651 0-22.319-21.522-42.236-47.825-45.421v0zM442.276 279.745c-9.568-6.384-19.919-5.589-24.709 2.388-5.573 7.963-3.185 20.713 5.587 27.095 10.351 7.963 21.51 5.575 26.3-2.4 4.776-7.961 0.797-19.919-7.178-27.083v0zM791.325 485.331c11.145 0 20.713 8.772 22.307 19.931 0 0.797 0.797 1.591 0.797 2.388 16.734 155.39-127.496 128.305-127.496 128.305-12.753 0-23.116-10.363-23.116-23.118 0-12.751 10.365-23.116 23.116-23.116 103.584 23.116 80.48-81.277 80.48-81.277-0.002-12.751 10.363-23.114 23.912-23.114v0zM773.782 756.314c-49.404 11.942-101.196 1.97-115.54-1.214-0.797 0-2.404-0.6-3.199-0.6-0.797 0-0.797-0.698-0.797-0.698-14.346-3.996-24.697-17.488-24.697-32.629 0-18.326 15.141-33.452 33.466-33.452 0 0 18.326 2.402 31.078 7.193 11.956 4.776 115.554 3.199 167.346-82.868 27.894-62.951 11.956-105.189 10.363-112.368 0 0-7.178-15.94-7.178-32.674 0-18.326 15.141-31.050 34.275-31.050 15.143 0 28.69-0.756 31.873 27.916h0.797c54.993 196.61-67.74 271.716-157.788 292.444v0z" />
<glyph unicode="&#xe61b;" glyph-name="search" d="M273.067 710.4c-12.8-4.267-23.467-10.667-34.133-19.2-10.667-6.4-21.333-14.933-29.867-23.467s-17.067-19.2-23.467-29.867c-6.4-10.667-12.8-21.333-19.2-34.133-4.267-8.533 0-19.2 8.533-21.333 8.533-4.267 19.2 0 21.333 8.533 4.267 10.667 8.533 19.2 14.933 27.733s12.8 17.067 19.2 23.467c8.533 8.533 14.933 14.933 25.6 21.333 8.533 6.4 19.2 10.667 27.733 14.933s12.8 12.8 8.533 21.333c0 8.533-10.667 12.8-19.2 10.667zM725.333 394.667c-8.533 0-17.067-8.533-17.067-17.067 0-21.333-4.267-42.667-12.8-64-8.533-19.2-19.2-36.267-36.267-53.333-14.933-17.067-34.133-27.733-53.333-36.267s-40.533-12.8-64-12.8c-8.533 0-17.067-8.533-17.067-17.067s6.4-17.067 17.067-17.067c25.6 0 51.2 4.267 76.8 14.933 23.467 10.667 44.8 23.467 64 42.667s34.133 40.533 42.667 64c10.667 23.467 14.933 51.2 14.933 76.8 2.133 10.667-6.4 19.2-14.933 19.2zM443.733 881.067c-234.667 0-426.667-192-426.667-426.667s192-426.667 426.667-426.667 426.667 192 426.667 426.667c0 236.8-192 426.667-426.667 426.667zM443.733 72.533c-211.2 0-381.867 170.667-381.867 381.867s170.667 381.867 381.867 381.867c211.2 0 381.867-170.667 381.867-381.867 0-209.067-170.667-381.867-381.867-381.867zM987.733-2.133l-119.467 123.733c-12.8 12.8-27.733 19.2-44.8 19.2s-32-6.4-44.8-19.2c-25.6-25.6-25.6-66.133 0-91.733l119.467-123.733c12.8-12.8 27.733-19.2 44.8-19.2s32 6.4 44.8 19.2c25.6 25.6 25.6 66.133 0 91.733zM960-64c-6.4-6.4-10.667-6.4-14.933-6.4s-8.533 0-14.933 6.4l-119.467 123.733c-8.533 8.533-8.533 23.467 0 29.867 6.4 6.4 10.667 6.4 14.933 6.4s8.533 0 14.933-6.4l119.467-123.733c6.4-6.4 6.4-12.8 6.4-14.933-2.133-2.133-2.133-8.533-6.4-14.933z" />
<glyph unicode="&#xe61c;" glyph-name="date" d="M819.2-64h-614.4c-76.8 0-140.8 70.4-140.8 147.2v486.4c0 83.2 64 147.2 147.2 147.2 12.8 0 19.2-6.4 19.2-19.2s-12.8-19.2-25.6-19.2c-57.6 0-108.8-51.2-108.8-108.8v-486.4c0-57.6 51.2-108.8 108.8-108.8h608c57.6 0 108.8 51.2 108.8 108.8v486.4c0 57.6-51.2 108.8-108.8 108.8-12.8 0-19.2 6.4-19.2 19.2s6.4 19.2 19.2 19.2c83.2 0 147.2-64 147.2-147.2v-486.4c0-76.8-64-147.2-140.8-147.2zM640 678.4h-256c-12.8 0-19.2 6.4-19.2 19.2s6.4 19.2 19.2 19.2h256c12.8 0 19.2-6.4 19.2-19.2s-6.4-19.2-19.2-19.2zM940.8 524.8h-857.6c-12.8 0-19.2 6.4-19.2 19.2s6.4 19.2 19.2 19.2h857.6c12.8 0 19.2-6.4 19.2-19.2s-6.4-19.2-19.2-19.2zM288 640c-12.8 0-19.2 6.4-19.2 19.2v153.6c0 12.8 6.4 19.2 19.2 19.2s19.2-6.4 19.2-19.2v-153.6c0-12.8-6.4-19.2-19.2-19.2zM736 640c-12.8 0-19.2 6.4-19.2 19.2v153.6c0 12.8 6.4 19.2 19.2 19.2s19.2-6.4 19.2-19.2v-153.6c0-12.8-6.4-19.2-19.2-19.2zM416 377.6h-192c-12.8 0-19.2 6.4-19.2 19.2s6.4 19.2 19.2 19.2h192c12.8 0 19.2-6.4 19.2-19.2s-6.4-19.2-19.2-19.2zM288 249.6h-64c-12.8 0-19.2 6.4-19.2 19.2s6.4 19.2 19.2 19.2h64c12.8 0 19.2-6.4 19.2-19.2s-6.4-19.2-19.2-19.2zM544 249.6h-64c-12.8 0-19.2 6.4-19.2 19.2s6.4 19.2 19.2 19.2h64c12.8 0 19.2-6.4 19.2-19.2s-6.4-19.2-19.2-19.2zM800 249.6h-64c-12.8 0-19.2 6.4-19.2 19.2s6.4 19.2 19.2 19.2h64c12.8 0 19.2-6.4 19.2-19.2s-6.4-19.2-19.2-19.2zM288 121.6h-64c-12.8 0-19.2 6.4-19.2 19.2s6.4 19.2 19.2 19.2h64c12.8 0 19.2-6.4 19.2-19.2s-6.4-19.2-19.2-19.2zM544 121.6h-64c-12.8 0-19.2 6.4-19.2 19.2s6.4 19.2 19.2 19.2h64c12.8 0 19.2-6.4 19.2-19.2s-6.4-19.2-19.2-19.2zM800 121.6h-64c-12.8 0-19.2 6.4-19.2 19.2s6.4 19.2 19.2 19.2h64c12.8 0 19.2-6.4 19.2-19.2s-6.4-19.2-19.2-19.2z" />
<glyph unicode="&#xe61e;" glyph-name="help" d="M901.12 691.2h-778.24c-67.584 0-122.88-55.296-122.88-122.88v-573.44c0-67.584 55.296-122.88 122.88-122.88h778.24c67.584 0 122.88 55.296 122.88 122.88v573.44c0 67.584-55.296 122.88-122.88 122.88zM983.040-5.12c0-45.056-36.864-81.92-81.92-81.92h-778.24c-45.056 0-81.92 36.864-81.92 81.92v573.44c0 45.056 36.864 81.92 81.92 81.92h778.24c45.056 0 81.92-36.864 81.92-81.92v-573.44zM430.080 486.4h163.84v-40.96h-163.84zM430.080 117.76h163.84v-40.96h-163.84zM552.96 240.64h40.96v-163.84h-40.96zM430.080 240.64h40.96v-163.84h-40.96zM307.2 363.52h40.96v-163.84h-40.96zM675.84 363.52h40.96v-163.84h-40.96zM552.96 486.4h40.96v-163.84h-40.96zM430.080 486.4h40.96v-163.84h-40.96zM552.96 240.64h163.84v-40.96h-163.84zM552.96 363.52h163.84v-40.96h-163.84zM307.2 363.52h163.84v-40.96h-163.84zM307.2 240.64h163.84v-40.96h-163.84zM307.2 685.056v88.064c0 22.528 18.432 40.96 40.96 40.96h327.68c22.528 0 40.96-18.432 40.96-40.96v-88.064h40.96v88.064c0 45.056-36.864 81.92-81.92 81.92h-327.68c-45.056 0-81.92-36.864-81.92-81.92v-88.064h40.96z" />
<glyph unicode="&#xe61f;" glyph-name="close" d="M633.355 384l339.75 339.75c15.227 15.475 24.633 36.723 24.633 60.17 0 47.388-38.415 85.804-85.804 85.804-23.451 0-44.703-9.407-60.195-24.657l-339.737-339.709-339.75 339.724c-15.626 16.162-37.499 26.196-61.716 26.196-47.388 0-85.804-38.415-85.804-85.804 0-24.217 10.033-46.093 26.167-61.694l339.744-339.774-339.724-339.75c-16.162-15.626-26.196-37.499-26.196-61.716 0-47.388 38.415-85.804 85.804-85.804 24.217 0 46.093 10.033 61.694 26.167l339.774 339.744 339.75-339.75c15.475-15.227 36.723-24.633 60.17-24.633 47.388 0 85.804 38.415 85.804 85.804 0 23.451-9.407 44.703-24.657 60.195l-339.709 339.737z" />
<glyph unicode="&#xe623;" glyph-name="dream" d="M382.641 37.937h-192.233c-3.051 0-5.99 0.115-9.043 0.465h-0.35c-1.995 0.352-4.104 0.708-6.103 1.296-3.635 0.822-7.156 1.88-10.562 3.167-0.349 0.121-0.706 0.234-1.056 0.472-1.524 0.822-3.167 1.522-4.695 2.344-2.932 1.53-5.869 3.289-8.687 5.169-0.465 0.349-2.58 1.874-3.282 2.459-0.823 0.705-1.529 1.293-2.351 1.994-2.461 2.23-4.813 4.58-7.156 7.049-0.824 0.935-1.531 1.759-2.353 2.694 0-0.114 0.121-0.234 0.121-0.234 0 0.12-0.121 0.234-0.121 0.355-0.35 0.467-0.701 0.937-1.173 1.289-0.465 0.585-0.703 0.942-0.703 1.173-1.993 2.937-3.758 5.868-5.518 8.921l-2.466 4.93c0 0.115-0.115 0.115-0.115 0.235-0.114 0.229-0.114 0.35-0.234 0.702-1.29 3.401-2.345 6.927-3.288 10.564-0.467 1.76-0.825 3.641-1.173 5.398-0.115 0.47-0.115 0.936-0.235 1.407-0.23 3.167-0.464 6.333-0.464 9.623-0.123 12.673 0 25.348 0 38.141v620.615c0 2.931 0.234 5.868 0.464 8.686 0.122 0.701 0.122 1.642 0.235 1.994 0.349 2.109 0.822 4.224 1.408 6.219 0.941 3.524 2.115 6.927 3.288 10.329 0.823 1.76 1.642 3.518 2.581 5.162 1.759 3.174 3.638 6.341 5.632 9.272 0.351 0.472 1.173 1.408 1.531 1.994 0.821 0.943 1.641 1.994 2.458 2.938 2.465 2.696 5.047 5.162 7.747 7.627 1.058 0.938 2.345 1.759 3.405 2.704 0.586 0.465 1.171 0.822 1.757 1.172 3.053 1.994 6.106 3.874 9.395 5.514l2.816 1.407c1.057 0.235 2.229 0.942 3.051 1.294 3.282 1.173 6.57 2.115 9.858 2.932 1.758 0.47 3.638 0.822 5.519 1.178h0.351c0.7 0.115 1.287 0.115 1.408 0.115 14.904 1.293 30.28 0.351 45.184 0.351h458.534c13.382 0 26.878 0.12 40.26 0 3.282 0 7.628-1.052 10.908-0.702 0.235 0 0.472-0.121 0.706-0.121 2.111-0.352 4.112-0.938 6.219-1.408 3.053-0.823 6.105-1.874 9.157-2.932 0.586-0.235 1.173-0.472 1.524-0.586 1.879-0.936 3.759-1.88 5.518-2.815 3.168-1.76 6.105-3.761 9.15-5.87v0c1.408-1.173 2.816-2.345 4.225-3.639 2.703-2.465 5.168-5.046 7.512-7.747 0.121-0.116 0.585-0.702 1.058-1.173 0.471-0.701 2.344-3.288 2.817-3.874 1.993-3.047 3.752-6.221 5.395-9.388 0.706-1.293 1.173-3.166 1.994-4.46 0.235-0.471 0.358-0.938 0.586-1.524 1.178-3.522 2.23-7.041 3.050-10.679 0.234-1.059 0.473-2.115 0.586-3.173 0-1.052 0.357-2.345 0.471-3.282 0.235-3.875 0.235-7.634 0.235-11.502v-238.248c0-13.845 12.088-26.992 26.406-26.405 14.318 0.585 26.406 11.617 26.406 26.405v239.885c0 25.818-7.041 51.64-22.181 72.768-22.53 31.218-56.449 50.583-95.063 53.163-5.397 0.35-10.796 0.236-16.192 0.236h-519.092c-10.68 0-21.245-0.586-31.923-2.581-34.619-6.455-65.957-30.044-83.093-60.675-10.679-19.135-15.846-40.494-15.962-62.319v-657.933c0.351-35.915 16.783-71.827 44.949-94.358 23.238-18.543 50.702-28.637 80.626-28.637h190.358c13.855 0 27.001 12.088 26.415 26.407-0.706 13.967-11.622 26.053-26.413 26.053v0zM134.773 64.93v0c-0.701 2.231-1.875 3.050-1.875 2.465 0.115-0.121 0.115-0.234 0.237-0.357 0.35-0.583 1.172-1.406 1.637-2.108v0zM189.821 689.296h248.921c13.852 0 26.993 12.087 26.406 26.405-0.585 14.318-11.618 26.406-26.406 26.406h-248.921c-13.852 0-26.997-12.088-26.411-26.406 0.706-14.318 11.623-26.405 26.411-26.405v0zM496.601 536.137h122.529c19.716 0 39.551-0.466 59.267 0h0.823c13.847 0 26.993 12.087 26.407 26.406s-11.618 26.405-26.407 26.405h-429.309c-19.72 0-39.55 0.472-59.272 0h-0.818c-13.852 0-26.997-12.087-26.411-26.405 0.591-14.319 11.622-26.406 26.411-26.406h306.78zM301.664 436.146h-111.726c-13.848 0-26.993-12.088-26.407-26.408 0.585-14.317 11.617-26.405 26.407-26.405h111.726c13.848 0 26.993 12.088 26.408 26.405-0.702 14.32-11.618 26.408-26.408 26.408v0zM646.239 318.313c-1.41 1.529-3.284 3.288 0 0v0 0zM920.282 288.624v0c-0.586 1.052-1.179 1.994-1.766 3.047-0.114-0.001 0.237-0.703 1.766-3.047v0zM945.866 127.716l1.759 2.465c0.236 0.235 0.351 0.584 0.586 0.823 0.586 0.822 1.173 1.643 1.642 2.465 0.236 0.352 0.472 0.702 0.707 1.173 0.465 0.706 0.936 1.523 1.523 2.232 0.351 0.472 0.701 1.056 1.057 1.642l1.051 1.76c0.472 0.705 0.942 1.527 1.408 2.23l0.706 1.057c0.585 1.057 1.173 2.111 1.881 3.168l0.114 0.121c15.846 27.694 24.761 58.68 24.646 91.184v3.409c0 0.586 0 1.173-0.119 1.76v1.408c-1.288 34.384-11.968 68.888-31.684 97.174-9.393 13.495-20.071 25.348-32.16 35.794-4.338 3.76-8.8 7.397-13.381 10.799-44.007 32.511-104.329 42.841-157.027 27.817-29.929-8.214-56.687-24.297-78.753-45.771-14.669 14.433-31.569 26.641-50.583 35.091-0.115 0.116-0.235 0.116-0.466 0.235-7.162 3.401-14.675 6.333-22.303 8.8-36.029 11.501-76.751 11.266-112.549-0.702-31.216-10.448-60.324-28.993-81.8-54.22-7.276-8.22-13.845-17.256-19.599-26.878-15.020-24.997-23.591-53.635-25.584-82.741-2.231-29.695 3.516-58.796 15.252-85.438 0.123-0.12 0.123-0.356 0.237-0.471 0.349-0.936 0.822-1.758 1.173-2.702 0.357-0.702 0.707-1.524 1.057-2.232 0.236-0.35 0.351-0.817 0.586-1.173 4.461-9.273 9.743-18.192 15.727-26.755 0-0.115 0.12-0.115 0.12-0.235 0.702-1.058 1.524-2.11 2.226-3.167 0.121-0.235 0.234-0.351 0.47-0.587 0 0 0-0.121 0.123-0.121 2.457-5.511 7.039-9.507 11.266-13.846l199.047-199.045c13.376-13.381 25.471-27.579 43.891-34.388 6.807-2.46 13.734-3.753 20.775-3.753 17.843-0.115 35.442 7.161 48.351 19.716 3.175 3.050 6.226 6.22 9.393 9.392l115.603 115.605c32.276 32.267 65.016 64.075 96.825 96.816 2.695 2.703 5.047 5.755 6.683 9.157-0.114 0.582 0.001 0.819 0.122 0.934v0zM672.649-70.508h-0.235c0.115 0 0.235 0.121 0.235 0v0zM669.948-70.745h-0.351c0.115-0.115 0-0.231-0.234-0.231-0.236 0-0.587 0.115-1.058 0.231-0.352 0.121-0.586 0.121-0.937 0.235 0.823-0.115 1.643-0.235 2.23-0.235v0h0.232c-0.116 0.235-0.817 0.591-1.994 0.47-0.35 0-0.586 0-0.936-0.112l-2.466 0.701c0 0-0.114 0-0.114 0.122l-2.817 1.759-1.881 1.879c-3.638 3.518-7.154 7.155-10.794 10.795l-114.548 114.545c-31.808 31.802-63.261 64.078-95.417 95.415-0.47 0.701-1.056 1.409-1.643 2.11-0.121 0.591-1.643 2.231-2.113 2.937-0.586 0.704-1.052 1.524-1.525 2.345l-2.114 3.174c-0.467 0.701-0.822 1.408-1.287 1.993-0.706 1.173-1.529 2.344-2.23 3.518-0.586 0.943-1.173 1.994-1.759 3.051-0.472 0.936-1.058 1.76-1.529 2.703-0.586 1.051-1.058 2.109-1.644 3.049l-1.408 2.818c0 0.115-0.113 0.231-0.113 0.352-0.586 1.407-2.467 5.747-1.88 4.11 0 0.115-0.115 0.115-0.115 0.23l-1.408 3.523c-0.122 0.35-0.236 0.585-0.357 0.937-0.23 0.706-0.466 1.407-0.817 2.23-0.12 0.353-0.235 0.585-0.358 0.945-0.234 0.701-0.466 1.521-0.701 2.223-0.121 0.235-0.121 0.594-0.235 0.824l-0.705 2.465c-0.115 0.234-0.115 0.472-0.231 0.706-0.234 0.824-0.47 1.76-0.706 2.581 0 0.234-0.115 0.35-0.115 0.585-0.234 0.936-0.472 1.759-0.706 2.702 0 0.116-0.114 0.351-0.114 0.466-0.235 0.943-0.472 1.88-0.707 2.703 0 0.235-0.114 0.35-0.114 0.585-0.236 0.936-0.351 1.759-0.585 2.702 0 0.232-0.121 0.586-0.121 0.824-0.117 0.702-0.237 1.288-0.351 1.993-0.115 0.824-0.234 2.581-0.473 3.988-0.114 1.41-0.585 3.169-0.701 4.34-0.35 4.225-0.586 8.45-0.586 12.796v1.522c0 1.057 0 2.231 0.115 3.289v0.937c0.123 4.345 0.472 8.683 0.943 13.029v0.349c0.115 0.474 0.115 1.058 0.229 1.525 0.237 1.293 0.473 2.465 0.707 3.759 0.117 0.703 0.237 1.409 0.351 1.994 0.234 1.058 0.472 2.111 0.707 3.051 0.115 0.703 0.351 1.287 0.467 1.995 0.355 1.293 0.586 2.464 0.941 3.751 0.115 0.358 0.231 0.707 0.231 1.057 0.471 1.644 0.941 3.169 1.414 4.812 0.114 0.471 0.35 0.943 0.464 1.408l1.058 3.175c0.116 0.465 0.351 1.049 0.586 1.522 0.35 0.936 0.707 1.993 1.057 2.93 0.235 0.473 0.351 0.942 0.585 1.53 0.824 1.287 1.41 3.050 1.993 4.459 0.586 1.173 1.173 2.46 1.76 3.64 0.236 0.586 0.586 1.050 0.822 1.642 0.236 0.352 0.352 0.703 0.585 1.173l1.767 3.168c0.229 0.471 0.586 0.936 0.815 1.408 0.594 1.057 1.18 1.994 1.766 3.051 0.234 0.472 0.467 0.823 0.824 1.288 0.821 1.414 1.759 2.821 2.694 4.111 0.706 1.057 1.409 2.113 2.232 3.167 0.47 0.705 0.941 1.294 1.407 2.001 2.115 2.109 3.874 4.691 5.87 7.042 0.234 0.35 0.585 0.701 0.822 0.936 1.173 1.292 2.232 2.465 3.402 3.638l0.351 0.351c1.057 1.058 2.115 2.232 3.288 3.289 0.35 0.351 0.707 0.702 1.059 0.936 0.936 0.943 1.994 1.88 2.93 2.816 0.234 0.236 0.472 0.472 0.706 0.586 1.287 1.058 2.466 2.231 3.753 3.288 0.121 0.115 0.356 0.235 0.472 0.351 1.057 0.824 2.231 1.643 3.288 2.581 3.989 2.823 7.979 5.519 12.088 7.985 1.053 0.585 2.23 1.293 3.282 1.879 3.523 1.873 7.397 3.402 10.916 5.162 0.121 0.234 1.53 1.173 2.702 1.644 0.116 0 0.116 0.114 0.235 0.114-0.942-0.585-1.994-1.173-2.937-1.76-0.114-0.113 0.707 0.234 3.051 1.76l4.575 1.766c0.235 0.115 0.472 0.115 0.707 0.23 1.523 0.473 2.931 1.057 4.459 1.527 0.352 0.117 0.586 0.237 0.937 0.353 1.76 0.585 3.402 1.057 5.169 1.527h0.114c1.642 0.467 3.169 0.818 4.811 1.175 0.351 0.113 0.822 0.234 1.173 0.234 1.178 0.232 2.465 0.586 3.641 0.818 0.47 0.121 0.941 0.121 1.406 0.235 1.178 0.235 2.352 0.472 3.402 0.585 0.234 0 0.357 0.122 0.591 0.122 0.116 0 0.116 0 0.231 0.113h0.12c0.352 0.122 0.702 0.122 1.058 0.122 0.353 0 0.703 0 1.052 0.115l-2.461-0.35c-1.056-0.352-1.176-0.587 2.816 0.35 5.277 0.47 10.559 0.823 15.842 0.823h0.706c1.408 0 2.817 0 4.224-0.116 0.823 0 1.639 0 2.58-0.12 0.466 0 0.937 0 1.288-0.117 0.942 0 1.994-0.121 2.938-0.234 2.344-0.122 4.575-0.351 6.921-0.585 0.12 0 0.357 0 0.472-0.122 2.351-0.467 4.697-0.823 7.041-1.287 0.823-0.121 1.528-0.353 2.352-0.474l4.225-1.055h0.229c1.53-0.351 3.053-0.823 4.582-1.287 0.235-0.12 0.586-0.12 0.823-0.236 0.936-0.234 1.874-0.586 2.695-0.821 3.875-1.294 7.748-3.289 11.739-4.225 0.47-0.235 0.823-0.352 1.294-0.587 2.816-1.292 5.512-2.701 8.212-4.111 0.351-0.114 0.586-0.35 0.936-0.465 6.104-3.41 11.859-7.161 17.606-11.273 1.759-1.994 2.231-2.345 2.115-1.994-0.707 0.707-1.408 1.294-2.115 1.994 0.235-0.114 0.351-0.229 0.586-0.351 0.706-0.586 1.408-1.408 1.529-1.643 2.459-2.11 5.162-4.104 7.506-6.219 1.643-1.523 3.174-3.050 4.696-4.696l0.823-0.824c1.173-1.287 2.346-2.459 3.523-3.752 0.351-0.472 0.816-0.823 1.173-1.287 1.173-1.415 2.465-2.822 3.64-4.232 0.115-0.229 0.35-0.35 0.465-0.585 0.358-0.464 0.705-0.822 1.057-1.288 0-0.119 0.121-0.119 0.121-0.234l-0.234 0.234c0.234-0.234 0.466-0.471 0.587-0.706v0c5.631-7.74 12.787-13.025 22.767-13.025v0 0c10.091 0 17.132 5.281 22.767 13.025v0c0.473 0.706 1.057 1.409 1.643 2.116 0.822 0.936 1.523 1.874 2.345 2.816 0.35 0.35 0.706 0.823 1.057 1.172 0.936 1.058 1.88 2.116 2.931 3.17 0.234 0.234 0.472 0.584 0.822 0.822 0.587 0.585 1.178 1.173 1.765 1.879 3.99 4.112 8.214 7.864 12.556 11.618 1.178 0.945 2.585 2.114 2.351 1.882 0.586 0.471 1.173 0.822 1.759 1.292 0.351 0.23 0.586 0.467 0.936 0.701l4.583 3.17c0.23 0.12 0.585 0.355 0.823 0.47 1.173 0.706 2.345 1.522 3.518 2.232 0.936 0.585 1.76 1.056 2.703 1.643 0.351 0.234 0.823 0.471 1.173 0.701 4.34 2.466 8.922 4.696 13.496 6.81v0 0c0 0 0.113 0 0.113 0.116 3.053 1.172 6.106 2.232 9.158 3.289 1.173 0.351 2.465 0.823 3.64 1.172 1.758 0.585 3.638 1.059 5.395 1.524 0.352 0.121 0.706 0.121 0.943 0.234 1.759 0.472 3.64 0.941 5.397 1.294 1.994 0.466 4.103 0.821 6.22 1.173l2.465 0.349c5.867 0.586 11.851 0.943 17.719 0.943h3.402c1.296 0 2.58-0.12 3.875-0.12 1.058 0 2.23-0.117 3.282-0.237 0.591 0 1.178-0.113 1.765-0.113l4.224-0.351c4.576-1.178 3.753-0.706 2.111-0.357-0.587 0.122-1.29 0.122-1.875 0.234h0.465c0.473 0 0.943-0.113 1.294-0.234 0.471 0 0.823-0.114 1.294-0.114 0.935-0.116 1.76-0.352 2.695-0.472 0.473-0.115 0.937-0.115 1.409-0.235 1.642-0.353 3.167-0.702 4.81-1.051 0.472-0.122 1.058-0.236 1.53-0.359 1.173-0.23 2.344-0.585 3.401-0.817 0.586-0.118 1.288-0.355 1.881-0.47 1.051-0.236 2.11-0.585 3.166-0.945 0.587-0.228 1.289-0.349 1.88-0.586 1.052-0.349 2.111-0.701 3.048-1.049 0.585-0.237 1.177-0.471 1.879-0.585 1.173-0.358 2.345-0.823 3.402-1.293 0.471-0.237 0.942-0.354 1.408-0.586v0 0 0 0c2.817-1.881 3.402-1.995 2.817-1.644 1.993-0.936 4.224-1.759 6.104-2.702 0.351-0.23 0.823-0.351 1.173-0.587 1.173-0.584 2.231-1.172 3.401-1.873 0.358-0.234 0.824-0.472 1.173-0.585 1.529-0.824 3.050-1.766 4.459-2.704 0.234-0.121 0.473-0.349 0.707-0.471 1.286-0.822 2.465-1.522 3.753-2.344 0.35-0.234 0.586-0.351 0.823-0.587 1.173-0.822 2.465-1.641 3.638-2.464 0.235-0.115 0.352-0.235 0.586-0.351 0.235-0.122 0.471-0.357 0.707-0.585l-0.236 0.23-0.471 0.471c0.235-0.234 0.471-0.35 0.707-0.585-0.122 0-0.122 0.115-0.236 0.115l0.353-0.352c-0.115 0-0.115 0.122-0.236 0.122l1.643-1.643c1.173-1.058 0 0.235-1.173 1.173 0.823-0.587 1.643-1.173 2.345-1.882 1.408-1.173 2.703-2.231 3.994-3.401 0.352-0.352 0.702-0.703 1.173-1.057 0.937-0.824 1.873-1.759 2.816-2.581l1.058-1.056c4.455-4.34 8.448-8.916 12.438-13.613 1.286-2.344 1.642-2.937 1.642-2.703-0.585 0.823-1.057 1.766-1.528 2.587 0.118-0.234 0.356-0.357 0.471-0.591 0.584-0.817 1.057-1.76 1.057-1.995 2.344-3.518 5.048-6.92 7.393-10.558 0.35-0.585 0.705-1.057 0.935-1.641 2.352-4.225 4.226-8.921 6.456-13.146 0.122-0.114 1.178-1.523 1.643-2.703 0-0.115 0.121-0.115 0.121-0.23v0 0 0c0.702-1.766 1.288-3.523 1.874-5.169 1.178-3.166 2.114-6.455 3.051-9.743 1.407-5.162 2.115-10.557 3.288-15.84 0 0.472 0.235-0.352 0.471-1.41 0-0.47 0.115-0.934 0.115-1.407l-0.707 2.817c0-0.352 0.236-1.173 0.707-2.931 0.115-0.591 0.115-1.293 0.234-1.88 0.115-0.937 0.235-1.881 0.235-2.815 0-0.353 0-0.708 0.116-1.058 0.234-3.402 0.349-6.929 0.349-10.33v-1.051c0-3.173-0.115-6.456-0.349-9.628v-0.823c0-0.702-0.116-1.522-0.116-2.229 0-0.587-0.121-1.052-0.121-1.639-0.115-0.707-0.115-1.531-0.234-2.232 0-0.357-0.115-0.706-0.115-1.058 0-0.119 0-0.234-0.115-0.471-0.471-2.465-0.822-4.925-1.408-7.513-0.121-0.35-0.121-0.703-0.234-1.050-0.236-0.823-0.358-1.643-0.587-2.467-0.121-0.471-0.234-0.822-0.356-1.173-0.23-0.823-0.352-1.529-0.586-2.352l-0.351-1.408c-0.234-0.702-0.351-1.408-0.586-2.111-0.114-0.472-0.234-0.942-0.472-1.407-0.234-0.706-0.465-1.409-0.584-2.115-0.115-0.465-0.235-0.936-0.466-1.407-0.235-0.703-0.472-1.411-0.707-2.233-0.114-0.465-0.234-0.823-0.471-1.286l-1.051-2.817c-0.121-0.236-0.121-0.358-0.236-0.585 0-0.121-0.119-0.235-0.119-0.358-0.235-0.702-0.586-1.407-0.823-2.109-1.051-0.825-1.995-4.227-2.581-5.634-0.822-1.642-1.642-3.174-2.465-4.811-0.229-0.357-0.466-0.823-0.585-1.177-0.822-1.639-1.759-3.169-2.696-4.812-0.235-0.351-0.471-0.703-0.586-1.057-0.941-1.638-1.993-3.282-3.050-4.812-0.121-0.114-0.235-0.229-0.235-0.35-1.172-1.759-2.23-3.402-3.402-5.047-0.471-0.587-2.937-3.875-1.88-2.58l-0.115-0.122c-0.584-0.701-1.173-1.521-1.642-2.226l-222.3-222.288c-1.057-0.706-2.816-1.766-3.639-2.231-0.702-0.234-1.408-0.351-2.11-0.584-0.592 0.112-1.057 0.112-1.414 0.112-1.173 0-1.76-0.349-1.524-0.47h0.238c0.701 0 1.521 0.235 2.23 0.235-0.121 0-0.234-0.115-0.35-0.115-0.706-0.121-1.179-0.235-1.53-0.235-0.235 0-0.35 0.115-0.35 0.115v0zM666.074-70.508c0.12 0 0.351 0.121 0.472 0.121 0.114 0 0.234-0.121 0.351-0.121h-0.823z" />
<glyph unicode="&#xe628;" glyph-name="wechat" d="M506.942 550.079c25.259 0 42.134 16.916 42.134 42.107 0 25.477-16.848 41.956-42.134 41.956-25.299 0-50.668-16.48-50.668-41.956 0.028-25.204 25.409-42.107 50.668-42.107v0zM271.257 634.143c-25.259 0-50.79-16.48-50.79-41.956 0-25.19 25.532-42.107 50.79-42.107 25.163 0 42.012 16.916 42.012 42.107-0.014 25.477-16.834 41.956-42.012 41.956v0zM1010.654 280.508c0 133.202-123.563 246.702-275.237 258.512 0.205 1.652 0.301 3.373-0.068 5.092-30.406 141.79-182.886 248.695-354.7 248.695-194.15 0-352.119-135.387-352.119-301.793 0-89.279 45.574-169.725 131.946-233.158l-30.106-90.508c-1.939-5.885-0.177-12.37 4.506-16.452 2.853-2.458 6.445-3.741 10.076-3.741 2.335 0 4.697 0.546 6.867 1.625l113.036 56.565 13.926-2.827c34.802-7.154 64.853-13.353 101.868-13.353 10.895 0 40.878 3.987 43.404 7.182 40.755-101.99 153.094-175.61 285.273-175.61 33.86 0 68.13 8.164 98.891 15.866l87.136-47.636c2.307-1.257 4.847-1.911 7.359-1.911 3.441 0 6.881 1.161 9.639 3.413 4.847 3.932 6.841 10.404 5.038 16.33l-22.255 74.001c74.602 58.955 115.521 129.488 115.521 199.708v0zM409.798 230.25c-9.626-0.833-19.388-1.243-29.082-1.243-32.686 0-60.334 5.652-92.31 12.26l-18.582 3.755c-3.195 0.683-6.567 0.245-9.503-1.269l-81.687-40.892 21.231 63.775c2.076 6.24-0.205 13.053-5.57 16.821-82.070 57.207-123.659 126.894-123.659 207.093 0 144.179 139.087 261.516 310.067 261.516 151.142 0 284.959-91.955 312.579-214.261-158.475-2.076-286.706-113.487-286.706-250.32 0-19.893 3.018-39.171 8.11-57.767-1.542 0.382-3.168 0.683-4.887 0.532v0zM860.371 107.301c-4.875-3.673-6.935-10.007-5.188-15.852l13.804-45.903-56.647 30.993c-2.157 1.188-4.588 1.803-7.004 1.803-1.188 0-2.389-0.15-3.564-0.464-30.379-7.674-61.822-15.593-92.433-15.593-142.186 0-257.857 97.717-257.857 217.811s115.658 217.771 257.857 217.771c139.469 0 257.325-99.724 257.325-217.771 0-59.87-37.738-121.255-106.291-172.797v0zM616.454 389.994c-16.848 0-33.696-16.971-33.696-33.792 0-16.944 16.848-33.669 33.696-33.669 25.313 0 42.038 16.725 42.038 33.669 0 16.848-16.725 33.792-42.038 33.792v0zM801.58 389.994c-16.603 0-33.451-16.971-33.451-33.792 0-16.944 16.848-33.669 33.451-33.669 25.231 0 42.257 16.725 42.257 33.669 0 16.848-16.998 33.792-42.257 33.792v0z" />
<glyph unicode="&#xe62a;" glyph-name="time" d="M940.8 338.8c-10.4 0-18.8-8.4-18.8-18.8 0-226.1-183.9-410-410-410s-410 183.9-410 410 183.9 410 410 410c158.5 0 304.3-92.8 371.5-236.4 3.8-8.1 12.7-12.4 21.3-10.3 8.7 2 14.7 9.9 14.5 18.8l-4.1 151.8c-0.3 10.4-8.9 19-19.3 18.3-10.4-0.3-18.6-8.9-18.3-19.3l2.1-77.8c-82.7 118.8-220.2 192.5-367.7 192.5-246.8 0-447.6-200.8-447.6-447.6s200.8-447.6 447.6-447.6 447.6 200.8 447.6 447.6c0 10.4-8.5 18.8-18.8 18.8zM512 621.1c-10.4 0-18.8-8.4-18.8-18.8v-282.3c0-10.4 8.4-18.8 18.8-18.8h282.3c10.4 0 18.8 8.4 18.8 18.8s-8.4 18.8-18.8 18.8h-263.5v263.5c0 10.4-8.4 18.8-18.8 18.8z" />
<glyph unicode="&#xe62f;" glyph-name="h5" d="M108.544 896l82.144-921.632 368.752-102.368 369.728 102.528 82.304 921.472h-902.928zM858.768 33.184l-297.232-82.368v-0.464l-0.768 0.24-0.784-0.24v0.464l-297.216 82.368-70.24 787.488h736.496l-70.256-787.488zM698.752 365.792l-13.072-146.56-126.208-34.064-125.856 33.92-8.048 90.24h-113.488l15.824-177.52 232.080-64.176 231.344 64.176 31.040 347.008h-411.968l-10.304 115.744h432.528l10.112 113.024h-566.224l30.496-341.808z" />
<glyph unicode="&#xe63e;" glyph-name="yjt" d="M320 896l-128-128 384-384-384-384 128-128 512 512-512 512z" />
<glyph unicode="&#xe644;" glyph-name="cms" d="M151.708 553.51l223.977-64.020c2.753-0.68 5.504-1.088 8.259-1.088 14.147 0 27.011 10.030 30.854 25.316 4.606 18.157-5.572 36.855-22.596 41.702l-223.915 64.012c-17.029 4.914-34.63-5.869-39.174-24.087-4.608-18.224 5.502-36.922 22.595-41.836zM151.708 212.412l223.977-64.010c2.489-0.775 5.351-1.224 8.318-1.23h0.003c14.149 0 27.013 10.029 30.857 25.313 4.605 18.157-5.573 36.922-22.597 41.702l-223.976 64.153c-17.030 4.841-34.631-5.942-39.175-24.16-4.609-18.157 5.5-36.85 22.594-41.768zM151.708 383.026l223.977-64.009c2.753-0.823 5.567-1.161 8.321-1.161 14.149 0 27.013 9.96 30.857 25.245 4.605 18.225-5.573 36.855-22.597 41.767l-223.977 64.020c-17.030 4.84-34.631-5.941-39.175-24.093-4.609-18.155 5.5-36.92 22.594-41.769zM609.011 343.102c3.838-15.284 16.834-25.245 30.854-25.245 2.815 0 5.57 0.339 8.324 1.162l223.977 64.008c17.088 4.78 27.203 23.614 22.593 41.704-4.544 18.218-22.086 29-39.111 24.159l-224.040-64.020c-17.030-4.913-27.207-23.543-22.597-41.768zM663.098-15.464l-119.188-34.053v748.051l415.947 118.813v-453.155c3.654 0.070 7.106 0.547 10.822 0.547 18.628 0 36.165-1.843 53.131-4.504v501.609c0 10.58-4.546 20.614-12.547 27.028-7.877 6.482-18.18 8.731-27.718 5.868l-471.643-134.719-471.641 134.787c-9.471 2.796-19.843 0.614-27.714-5.936-7.937-6.415-12.547-16.447-12.547-27.028v-818.614c0-15.427 9.664-29.002 23.684-32.96l479.896-137.11c2.755-0.819 5.572-1.161 8.322-1.161 2.755 0 5.572 0.341 8.26 1.161l154.974 44.224c-5.353 19.193-9.6 42.030-11.902 65.438l-0.136 1.712zM479.899-49.516l-415.889 118.884v748.046l415.89-118.881v-748.049zM639.865 488.402c2.815 0 5.57 0.408 8.324 1.157l223.977 64.018c17.088 4.847 27.203 23.545 22.528 41.769-4.542 18.219-22.083 29.069-39.109 24.16l-224.041-64.020c-16.966-4.913-27.143-23.613-22.533-41.836 3.773-15.22 16.77-25.248 30.854-25.248zM1023.809 184.776c0 3.343-1.153 6.819-3.584 9.347-2.368 2.593-5.636 3.96-8.772 3.96h-18.82c-7.81 0-16.197 6.483-18.502 14.396l-9.792 25.457c-3.712 7.372-2.24 18.29 3.33 24.091l13.504 14.336c2.216 2.493 3.573 5.792 3.584 9.408v0.002c0 3.69-1.342 7.032-3.584 9.355l-22.85 24.159c-2.24 2.389-5.249 3.889-8.772 3.889-3.388 0-6.466-1.432-8.702-3.89l-13.51-14.26c-5.566-5.874-15.743-7.578-22.596-3.485l-23.875 10.372c-7.423 2.457-13.635 11.262-13.635 19.724v20.063c0 3.48-1.217 6.826-3.65 9.354-2.367 2.591-5.567 3.89-8.701 3.89h-32.2c-3.202 0-6.401-1.299-8.771-3.89-2.294-2.439-3.705-5.731-3.712-9.353v-20.133c0-8.465-6.080-17.267-13.635-19.724l-23.687-10.372c-6.846-4.166-17.088-2.39-22.528 3.477l-13.572 14.266c-2.179 2.39-5.248 3.89-8.706 3.89-3.391 0-6.53-1.43-8.836-3.89l-22.723-24.159c-2.174-2.32-3.65-5.665-3.65-9.349 0-3.614 1.41-6.962 3.65-9.422l13.507-14.33c5.505-5.796 6.98-16.648 3.33-24.090l-9.796-25.457c-2.37-7.912-10.627-14.535-18.436-14.535l-19.008 0.134c-3.139 0-6.274-1.366-8.706-3.957-2.435-2.528-3.713-6.003-3.713-9.35v-34.327c0-3.413 1.28-6.756 3.713-9.35 2.432-2.66 5.567-3.957 8.706-3.957h19.008c7.81 0 16.066-6.418 18.37-14.473l9.862-25.32c3.711-7.435 2.174-18.357-3.331-24.159l-13.507-14.261c-2.174-2.458-3.65-5.797-3.65-9.416 0-3.69 1.41-6.962 3.65-9.422l22.723-24.16c2.305-2.313 5.445-3.82 8.835-3.82 3.458 0 6.593 1.436 8.707 3.82l13.503 14.406c5.509 5.8 15.686 7.44 22.596 3.475l23.814-10.44c7.553-2.455 13.635-11.33 13.635-19.656v-20.126c0-3.55 1.344-6.894 3.712-9.486 2.196-2.351 5.313-3.818 8.773-3.825h32.198c3.135 0 6.334 1.298 8.702 3.825 2.438 2.593 3.653 5.935 3.653 9.486v20.126c0 8.327 6.208 17.201 13.63 19.656l23.876 10.44c6.915 4.033 17.030 2.325 22.597-3.475l13.446-14.405c2.305-2.314 5.313-3.955 8.766-3.955 3.396 0 6.53 1.432 8.772 3.955l22.85 24.159c2.178 2.46 3.586 5.734 3.586 9.422 0 3.619-1.344 6.958-3.586 9.416l-13.503 14.261c-5.572 5.87-6.977 16.724-3.33 24.159l9.796 25.32c2.3 8.055 10.687 14.473 18.501 14.473h18.881c3.135 0 6.402 1.296 8.772 3.957 2.432 2.594 3.584 5.937 3.584 9.35v34.398h-0.191v0.004zM909.994 167.643c0-41.97-31.813-75.819-71.117-75.819s-71.182 33.847-71.182 75.82c0 41.907 31.812 75.89 71.117 75.89s71.182-33.985 71.182-75.89z" />
<glyph unicode="&#xe645;" glyph-name="tag" d="M482.304 260.096c4.096 0 13.312 4.096 13.312 4.096l43.008 43.008c4.096 4.096 4.096 8.192 4.096 13.312 0 13.312-8.192 21.504-21.504 21.504-4.096 0-13.312-4.096-13.312-4.096l-43.008-43.008c-4.096-5.12-4.096-9.216-4.096-13.312 0-12.288 8.192-21.504 21.504-21.504zM230.4 592.896c-33.792 0-59.392-29.696-59.392-64.512s25.6-59.392 59.392-59.392 64.512 29.696 64.512 64.512c0 29.696-30.72 59.392-64.512 59.392zM230.4 507.904c-13.312 0-21.504 8.192-21.504 21.504s8.192 21.504 21.504 21.504c13.312 0 21.504-8.192 21.504-21.504s-9.216-21.504-21.504-21.504zM413.696 712.704c-4.096 4.096-8.192 4.096-17.408 4.096h-289.792c-33.792 0-63.488-25.6-63.488-64.512v-289.792c0-4.096 4.096-13.312 4.096-13.312l417.792-417.792c4.096-4.096 8.192-4.096 13.312-4.096s13.312 4.096 13.312 4.096l332.8 332.8c4.096 4.096 4.096 8.192 4.096 13.312s-4.096 13.312-4.096 13.312l-410.624 421.888zM482.304-25.6l-397.312 396.288v281.6c0 13.312 8.192 21.504 21.504 21.504h285.696l396.288-397.312-306.176-302.080zM955.392 417.792l-417.792 418.816c-4.096 4.096-8.192 4.096-13.312 4.096h-293.888c-33.792 0-59.392-25.6-59.392-59.392 0-13.312 8.192-21.504 21.504-21.504s21.504 8.192 21.504 21.504 8.192 21.504 21.504 21.504h281.6l397.312-396.288-47.104-47.104c-4.096-4.096-4.096-8.192-4.096-13.312 0-13.312 8.192-21.504 21.504-21.504 4.096 0 13.312 4.096 13.312 4.096l64.512 64.512c4.096 4.096 4.096 8.192 4.096 13.312-6.144 3.072-6.144 7.168-11.264 11.264zM482.304 94.208c4.096 0 13.312 4.096 13.312 4.096l84.992 84.992c4.096 4.096 4.096 8.192 4.096 13.312 0 12.288-8.192 21.504-21.504 21.504-4.096 0-13.312-4.096-13.312-4.096l-84.992-86.016c-4.096-4.096-4.096-8.192-4.096-12.288 0-13.312 8.192-21.504 21.504-21.504zM375.808 196.608c0-13.312 8.192-21.504 21.504-21.504 4.096 0 13.312 4.096 13.312 4.096l21.504 21.504c4.096 4.096 4.096 8.192 4.096 13.312 0 13.312-8.192 21.504-21.504 21.504-4.096 0-13.312-4.096-13.312-4.096l-17.408-17.408c-4.096-5.12-8.192-13.312-8.192-17.408z" />
<glyph unicode="&#xe64c;" glyph-name="xys" d="M938.667 385.333v256c0 22.699-19.883 42.667-42.667 42.667h-768c-22.784 0-42.667-19.968-42.667-42.667v-554.667c0-22.699 19.883-42.667 42.667-42.667h298.667v-85.333c0 0-42.667 0-85.333 0s-42.667-42.667-42.667-42.667h383.957c0-42.667 42.709-42.667 42.709-42.667h213.333c0 0 42.667 0 42.667 42.667s0 384 0 426.667c0 42.667-42.624 42.667-42.667 42.667zM128 129.333v512h768v-256h-170.667c0 0-42.667 0-42.667-42.667 0-21.333 0-117.333 0-213.333h-554.667zM597.333-41.333v85.333h85.291c0-32.896 0-62.379 0-85.333h-85.291zM832-84c-11.776 0-21.333 9.557-21.333 21.333s9.557 21.333 21.333 21.333 21.333-9.557 21.333-21.333c0-11.776-9.557-21.333-21.333-21.333zM938.667 1.333h-213.376v341.333h213.376v-341.333z" />
<glyph unicode="&#xe655;" glyph-name="plane" d="M735.66-117.148c-1.823 0-3.655 0.212-5.47 0.652-7.94 1.931-14.273 7.896-16.668 15.698l-130.843 425.819-156.241-132.401 1.89-230.264c0.051-6.137-2.335-12.044-6.64-16.421l-38.681-39.373c-5.515-5.617-13.5-8.043-21.205-6.452-7.707 1.589-14.080 6.983-16.917 14.33l-83.718 216.426-224.697 96.523c-7.012 3.012-12.090 9.282-13.579 16.763s0.807 15.221 6.134 20.684l38.528 39.511c4.636 4.753 11.105 7.277 17.719 6.964l235.681-11.542 132.743 162.869-428.791 136.168c-7.663 2.437-13.522 8.669-15.465 16.476-1.945 7.8 0.299 16.056 5.92 21.805l73.604 75.174c4.928 5.027 11.866 7.537 18.87 6.841l528.762-53.238 149.837 150.189c59.681 60.38 116.882 69.856 145.679 69.856 0.141 0 0.288 0 0.429 0 26.725 0 50.353-7.907 63.267-20.82 31.183-31.182 29.64-120.139-54.371-205.844-0.059-0.061-0.118-0.177-0.18-0.236l-151.159-150.914 42.296-525.043c0.541-6.688-1.844-13.285-6.538-18.072l-73.65-75.175c-4.408-4.502-10.398-6.957-16.546-6.957zM594.5 388.569c2.178 0 4.367-0.306 6.509-0.935 7.469-2.188 13.344-7.979 15.627-15.423l129.723-422.177 39.009 39.818-42.306 525.183c-0.547 6.776 1.917 13.452 6.722 18.249l158.661 158.373c38.93 39.748 52.639 74.625 57.28 96.896 5.719 27.445-0.77 41.559-2.686 43.58-8.524 8.394-73.205 22.48-143.728-48.917-0.027-0.035-0.061-0.063-0.090-0.098l-157.623-157.759c-4.912-4.917-11.782-7.376-18.702-6.669l-528.62 53.223-39.488-40.328 425.378-135.089c7.313-2.323 12.994-8.106 15.184-15.462 2.192-7.347 0.604-15.303-4.244-21.248l-161.66-198.344c-4.648-5.706-11.727-8.847-19.083-8.505l-236.95 11.603-7.701-7.897 202.667-87.056c5.721-2.457 10.214-7.121 12.462-12.925l74.28-192.020 6.795 6.916-1.898 231.527c-0.057 6.876 2.943 13.416 8.19 17.86l191.317 162.12c4.239 3.591 9.556 5.495 14.976 5.495z" />
<glyph unicode="&#xe663;" glyph-name="shop" d="M1011.81 634.93c-0.083 3.58-0.837 6.962-2.143 10.054-0.007 0.016-0.417 0.516-0.757 1.116-1.684 3.829-4.078 7.063-7.041 9.664l-162.099 217.116c-5.114 6.782-13.155 11.12-22.21 11.12 0 0 0 0 0 0h-611.12c-0.003 0-0.006 0-0.010 0-9.055 0-17.096-4.338-22.159-11.050l-166.711-222.29c-2.219-3.177-3.802-6.963-4.475-11.057 1.635 5.877 1.235 5.387 0.985 4.777-1.195-2.941-1.897-6.351-1.916-9.923 0.006 0.133-0.174-0.137-0.174-0.457v-69.44c0.020-99.56 81.020-180.56 180.58-180.56 39.47 0 117.62 0 156.87 48.72 45.86-48.72 128.65-48.72 162.57-48.72s116.71 0 162.57 48.72c39.25-48.72 117.43-48.72 156.87-48.72 99.56 0 180.56 81 180.56 180.56v69.44c0 0.33-0.18 0.61-0.19 0.93zM220.33 828.44h583.34l125-166.67h-833.34zM831.44 439.56c-105.080 0-125 24.41-125 69.44v13.89c0 0 0 0 0 0 0 15.342-12.438 27.78-27.78 27.78s-27.78-12.438-27.78-27.78c0 0 0 0 0 0 0-50-23.61-83.33-138.89-83.33s-138.89 33.31-138.89 83.33c0 15.342-12.438 27.78-27.78 27.78s-27.78-12.438-27.78-27.78v-13.89c0-45-19.92-69.44-125-69.44-69.004 0.080-124.92 55.997-125 124.992v41.668h888.9v-41.67c-0.085-68.999-56-124.91-124.992-124.99zM928.67 328.44c-0.006 0-0.013 0-0.020 0-15.331 0-27.76-12.429-27.76-27.76 0-0.007 0-0.014 0-0.021v-328.999c0-17.39-11.23-32.060-24.52-32.060h-728.75c-13.28 0-24.51 14.68-24.51 32.060v329c0 15.342-12.438 27.78-27.78 27.78s-27.78-12.438-27.78-27.78v-329c0-48.31 35.92-87.62 80.060-87.62h728.76c44.16 0 80.080 39.31 80.080 87.62v329c0 0.006 0 0.013 0 0.020 0 15.331-12.429 27.76-27.76 27.76-0.007 0-0.014 0-0.021 0z" />
<glyph unicode="&#xe671;" glyph-name="manage" d="M90.88 725.76h280.32c15.36 0 28.16 12.8 28.16 28.16v35.84c0 15.36-12.8 28.16-28.16 28.16h-280.32c-15.36 0-28.16-12.8-28.16-28.16v-35.84c0-15.36 12.8-28.16 28.16-28.16zM88.32 789.76c0 1.28 1.28 2.56 2.56 2.56h280.32c1.28 0 2.56-1.28 2.56-2.56v-35.84c0-1.28-1.28-2.56-2.56-2.56h-280.32c-1.28 0-2.56 1.28-2.56 2.56v35.84zM90.88 540.16h496.64c15.36 0 28.16 12.8 28.16 28.16v35.84c0 15.36-12.8 28.16-28.16 28.16h-496.64c-15.36 0-28.16-12.8-28.16-28.16v-35.84c0-15.36 12.8-28.16 28.16-28.16zM88.32 604.16c0 1.28 1.28 2.56 2.56 2.56h496.64c1.28 0 2.56-1.28 2.56-2.56v-35.84c0-1.28-1.28-2.56-2.56-2.56h-496.64c-1.28 0-2.56 1.28-2.56 2.56v35.84zM707.84 334.080c-80.64 0-145.92-65.28-145.92-145.92s65.28-147.2 145.92-147.2 145.92 65.28 145.92 145.92-65.28 147.2-145.92 147.2zM707.84 66.56c-66.56 0-120.32 53.76-120.32 120.32s53.76 120.32 120.32 120.32 120.32-53.76 120.32-120.32-53.76-120.32-120.32-120.32zM985.6 243.2l-42.24 15.36c-8.96 2.56-15.36 10.24-19.2 17.92s-3.84 17.92 1.28 26.88l19.2 40.96c10.24 23.040 6.4 48.64-11.52 66.56s-43.52 21.76-66.56 11.52l-40.96-19.2c-8.96-3.84-17.92-3.84-26.88-1.28-8.96 3.84-15.36 10.24-17.92 19.2l-15.36 42.24c-8.96 24.32-30.72 38.4-55.040 38.4-8.96 0-17.92-2.56-25.6-5.12v162.56c0 47.36-58.88 112.64-84.48 138.24-51.2 49.92-116.48 98.56-154.88 98.56h-386.56c-32 0-58.88-26.88-58.88-58.88v-805.12c0-33.28 26.88-58.88 58.88-58.88h418.56c1.28-2.56 3.84-5.12 6.4-7.68 17.92-17.92 43.52-21.76 66.56-11.52l40.96 19.2c8.96 3.84 17.92 3.84 26.88 1.28s15.36-10.24 17.92-19.2l16.64-44.8c8.96-24.32 30.72-38.4 55.040-38.4 25.6 0 47.36 15.36 55.040 38.4l15.36 42.24c2.56 8.96 10.24 15.36 17.92 19.2 8.96 3.84 17.92 3.84 26.88-1.28l40.96-19.2c23.040-10.24 48.64-6.4 66.56 11.52s21.76 43.52 11.52 66.56l-19.2 40.96c-3.84 8.96-3.84 17.92-1.28 26.88s10.24 15.36 19.2 17.92l42.24 15.36c24.32 8.96 38.4 30.72 38.4 55.040 2.56 26.88-12.8 48.64-35.84 57.6zM643.84 697.6c-62.72 16.64-145.92 11.52-183.040 7.68 6.4 46.080 1.28 126.72-1.28 161.28 29.44-10.24 76.8-44.8 119.040-87.040 30.72-29.44 52.48-57.6 65.28-81.92zM473.6 30.72c-5.12-10.24-6.4-23.040-5.12-33.28h-409.6c-17.92 0-33.28 15.36-33.28 33.28v806.4c0 17.92 15.36 33.28 33.28 33.28h375.040c2.56-34.56 10.24-136.96 0-174.080-1.28-5.12 0-8.96 2.56-12.8s7.68-5.12 12.8-5.12c14.080 1.28 135.68 15.36 206.080-11.52 0-2.56 1.28-5.12 1.28-7.68v-183.040h2.56c-2.56-3.84-5.12-7.68-6.4-12.8l-15.36-40.96c-2.56-8.96-10.24-15.36-17.92-19.2h-1.28v24.32c0 15.36-12.8 28.16-28.16 28.16h-496.64c-15.36 0-28.16-12.8-28.16-28.16v-35.84c0-15.36 12.8-28.16 28.16-28.16h375.040c1.28-6.4 2.56-11.52 5.12-17.92l19.2-40.96c3.84-8.96 3.84-17.92 1.28-26.88 0 0 0-1.28-1.28-1.28h-399.36c-15.36 0-28.16-12.8-28.16-28.16v-35.84c0-15.36 12.8-28.16 28.16-28.16h299.52c1.28-23.040 16.64-42.24 38.4-51.2l42.24-15.36c8.96-2.56 15.36-10.24 19.2-17.92 3.84-8.96 3.84-17.92-1.28-26.88l-17.92-42.24zM471.040 387.84h-377.6c-1.28 0-2.56 1.28-2.56 2.56v35.84c0 1.28 1.28 2.56 2.56 2.56h496.64c1.28 0 2.56-1.28 2.56-2.56v-23.040l-40.96 19.2c-23.040 10.24-48.64 6.4-66.56-11.52-7.68-6.4-11.52-14.080-14.080-23.040zM396.8 208.64h-303.36c-1.28 0-2.56 1.28-2.56 2.56v35.84c0 1.28 1.28 2.56 2.56 2.56h355.84l-17.92-6.4c-16.64-6.4-29.44-19.2-34.56-34.56zM976.64 156.16l-42.24-15.36c-15.36-5.12-28.16-17.92-34.56-33.28s-6.4-33.28 1.28-47.36l19.2-40.96c7.68-15.36 1.28-29.44-6.4-37.12s-21.76-14.080-37.12-6.4l-40.96 19.2c-15.36 7.68-32 7.68-47.36 1.28s-26.88-19.2-33.28-34.56l-15.36-42.24c-6.4-16.64-20.48-21.76-30.72-21.76-11.52 0-25.6 6.4-30.72 21.76l-15.36 42.24c-5.12 15.36-17.92 28.16-33.28 34.56-7.68 2.56-15.36 3.84-23.040 3.84-8.96 0-16.64-1.28-25.6-5.12l-40.96-19.2c-15.36-7.68-29.44-1.28-37.12 6.4s-14.080 21.76-6.4 37.12l19.2 40.96c7.68 15.36 7.68 32 1.28 47.36s-19.2 26.88-34.56 33.28l-42.24 15.36c-16.64 6.4-21.76 20.48-21.76 30.72s6.4 25.6 21.76 30.72l42.24 15.36c15.36 5.12 28.16 17.92 34.56 33.28s6.4 33.28-1.28 47.36l-19.2 40.96c-7.68 15.36-1.28 29.44 6.4 37.12s21.76 14.080 37.12 6.4l40.96-19.2c15.36-7.68 32-7.68 47.36-1.28s26.88 19.2 33.28 34.56l15.36 42.24c6.4 16.64 20.48 21.76 30.72 21.76s25.6-6.4 30.72-21.76l15.36-42.24c5.12-15.36 17.92-28.16 33.28-34.56s32-6.4 47.36 1.28l40.96 19.2c15.36 7.68 29.44 1.28 37.12-6.4s14.080-21.76 6.4-37.12l-19.2-40.96c-7.68-15.36-7.68-32-1.28-47.36s19.2-26.88 34.56-33.28l42.24-15.36c16.64-6.4 21.76-20.48 21.76-30.72s-5.12-24.32-20.48-30.72z" />
<glyph unicode="&#xe67c;" glyph-name="money" horiz-adv-x="1204" d="M1201.719 253.812c0 96.142-130.791 171.455-291.050 171.455-10.666 0-23.491-0.382-33.833-1.034v280.541c1.492 7.106 0.936 14.32 0.936 21.692 0 94.741-121.605 168.957-281.865 168.957-160.263 0-285.784-74.218-285.784-168.957 0-7.372 1.013-14.586 2.499-21.692v-76.927c-9.043 0.485-18.207 0.79-27.525 0.79-160.258 0-283.445-74.205-283.445-168.936 0-7.393-1.326-14.606 0.167-21.712v-392.927h1.948c5.029-89.563 126.602-158.988 281.33-158.988 154.611 0 283.943 69.312 289.151 158.989h1.943v16.366c9.152-0.533 10.299-1.389 19.716-1.389 10.695 0 21.139 0.453 31.475 1.128v-4.622h2.085l-0.605-10.706c0-92.356 125.622-172.793 285.991-172.793 160.39 0 286.005 73.435 286.005 167.363l-0.312 10.661h1.797v180.717c1.518 7.213-0.624 14.523-0.624 22.025v0zM914.853 370.76c140.991 0 239.24-61.632 239.24-116.948 0-55.311-98.251-116.943-239.24-116.943-140.981 0-239.233 61.632-239.233 116.943 0.001 55.315 98.252 116.948 239.233 116.948v0zM1156.637 157.951v-29.584c-13.481-59.228-120.639-108.746-241.786-108.746-121.059 0-228.207 49.483-241.773 108.651v29.678c51.518-45.897 139.685-75.589 241.773-75.589 102.105 0 190.269 29.691 241.786 75.589v0zM595.908 396.493c-9.298 0-10.643 0.402-19.718 0.984v40.511c0.925 4.398 1.55 8.845 1.984 13.338 8.392-0.504 9.074-0.809 17.735-0.809 101.54 0 184.818 29.97 234.336 75.882v-22.757c-13.289-58.339-114.981-107.149-234.337-107.149v0zM834.16 419.181c-4.136-0.663-8.305-1.256-12.365-2.015 4.193 3.302 8.597 6.507 12.365 9.999v-7.984zM595.908 841.702c138.922 0 231.818-60.727 231.818-115.234 0-54.495-92.896-115.221-231.819-115.221-138.927 0-235.737 60.727-235.737 115.221 0 54.507 96.809 115.234 235.738 115.234v0zM357.659 632.022c4.314-3.85 9.241-7.411 14.071-11.017-4.595 0.842-9.374 1.435-14.071 2.141v8.876zM285.098 574.934c138.927 0 239.651-60.741 239.651-115.234 0-54.514-100.724-115.221-239.651-115.221-138.922 0-235.732 60.707-235.732 115.221 0 54.494 96.809 115.234 235.732 115.234v0zM46.849 365.234c50.78-45.222 137.647-74.481 238.249-74.481s191.389 29.26 242.149 74.481v-29.147c-13.274-58.356-122.786-107.155-242.149-107.155-119.299 0-224.872 48.766-238.249 107.078v29.225zM46.849 259.559c49.517-45.859 136.698-75.829 238.249-75.829 101.54 0 192.651 29.97 242.149 75.88v-22.739c-13.274-58.356-122.786-107.153-242.149-107.153-119.299 0-224.872 48.747-238.249 107.057v22.784zM46.849 160.336c49.517-45.867 136.698-75.83 238.249-75.83 101.54 0 192.651 29.963 242.149 75.882v-22.739c-13.274-58.362-122.786-107.154-242.149-107.154-119.299 0-224.872 48.741-238.249 107.073v22.769zM285.098-68.718c-123.836 0-232.621 52.556-239.098 113.778h0.849v16.060c49.517-45.844 136.698-75.817 238.249-75.817 101.54 0 192.651 29.971 242.149 75.862v-16.105h0.835c-6.474-61.221-119.158-113.778-242.984-113.778v0zM571.807 496.943c-9.432 25.655-36.21 48.924-62.547 68.54 27.288-4.977 56.227-7.941 86.651-7.941 100.602 0 183.556 29.257 234.336 74.48v-29.15c-13.288-58.356-114.98-107.153-234.336-107.153-10.791-0.001-13.614 0.471-24.103 1.224v0zM627.382 106.547c-10.348-0.77-20.827-1.306-31.474-1.306-9.298 0-10.643 0.387-19.718 0.988v47.6c9.051-0.582 10.375-0.969 19.718-0.969 10.726 0 21.152 0.535 31.474 1.293v-47.605zM627.382 199.388c-10.348-0.78-20.827-1.327-31.474-1.327-9.298 0-10.643 0.41-19.718 0.983v54.017c9.051-0.583 10.375-0.983 19.718-0.983 9.936 0 19.609 0.467 29.177 1.108 0.248-6.296 1.038-12.478 2.299-18.569l-0.001-35.229zM634.113 299.046c-12.518-1.12-25.248-1.771-38.204-1.771-9.298 0-10.643 0.39-19.718 0.99v53.987c9.051-0.56 10.375-0.961 19.718-0.961 30.66 0 59.778 3.027 87.194 8.112-22.677-17.616-39.468-38.022-48.99-60.358v0zM914.853-81.076c-128.841 0-241.972 56.024-243.247 120.165l0.403 11.98h0.683c50.163-46.751 138.837-77.326 242.161-77.326 103.289 0 191.935 30.563 242.117 77.326h0.77l0.378-10.87c-0.002-64.601-113.668-121.276-243.265-121.276v0zM262.454 424.509c-2.096 2.518-3.735 7.457-4.907 14.818h-33.967c-0.256-16.182 6.787-27.633 21.126-34.35 8.137-3.735 20.469-6.247 36.999-7.532v-17.444h12.198v17.619c13.007 0.689 24.236 3.092 33.712 7.175 15.518 6.654 23.287 17.348 23.287 32.069 0 11.16-5.639 19.806-16.913 25.937-6.844 3.67-20.207 7.909-40.085 12.708v33.382c8.291-0.414 14.001-2.69 17.156-6.846 1.817-2.396 3.065-6.181 3.72-11.381h33.101c-0.504 14.007-7.813 24.154-21.915 30.404-7.762 3.915-18.462 6.247-32.062 7.005v11.833h-12.198v-11.657c-8.551-0.471-15.071-1.192-19.5-2.192-7.31-1.58-13.931-4.45-19.877-8.583-4.612-3.219-8.201-7.035-10.758-11.477-2.562-4.45-3.843-9.375-3.843-14.805 0-8.24 3.29-15.281 9.866-21.127 6.589-5.831 17.901-10.388 33.923-13.669l10.19-2.098v-37.408c-9.562 1.162-15.976 3.706-19.251 7.618v0zM293.905 451.403c6.965-1.804 11.905-3.557 14.803-5.245 4.895-2.931 7.335-6.896 7.335-11.916 0-6.603-2.599-11.241-7.837-13.932-2.978-1.515-7.751-2.574-14.301-3.153v34.247zM268.108 482.343c-5.277 2.862-7.928 6.741-7.928 11.657 0 4.493 1.771 8.035 5.296 10.642 3.51 2.595 8.929 3.945 16.232 4.072v-30.755c-6.131 1.337-10.668 2.802-13.6 4.383v0zM888.462 227.811c-2.104 2.511-3.736 7.437-4.916 14.796h-33.966c-0.247-16.184 6.788-27.631 21.127-34.347 8.137-3.735 20.475-6.245 37-7.54v-17.423h12.205v17.602c13 0.706 24.235 3.109 33.712 7.181 15.516 6.666 23.281 17.36 23.281 32.082 0 11.159-5.644 19.788-16.917 25.925-6.843 3.69-20.2 7.922-40.076 12.707v33.383c8.282-0.401 13.994-2.691 17.147-6.834 1.835-2.396 3.066-6.194 3.733-11.394h33.089c-0.503 14.021-7.807 24.154-21.909 30.398-7.768 3.914-18.448 6.266-32.062 7.024v11.82h-12.204v-11.643c-8.553-0.485-15.054-1.211-19.501-2.193-7.303-1.58-13.924-4.442-19.875-8.597-4.615-3.206-8.195-7.044-10.758-11.465-2.554-4.449-3.835-9.394-3.835-14.818 0-8.227 3.286-15.27 9.877-21.114 6.579-5.843 17.884-10.401 33.903-13.668l10.19-2.11v-37.408c-9.566 1.172-15.976 3.723-19.245 7.636v0zM919.912 254.699c6.959-1.818 11.895-3.559 14.803-5.245 4.894-2.931 7.33-6.91 7.33-11.936 0-6.582-2.601-11.236-7.827-13.926-2.989-1.515-7.762-2.562-14.305-3.142l-0.001 34.25zM894.112 285.638c-5.282 2.85-7.914 6.73-7.914 11.637 0 4.498 1.75 8.055 5.277 10.648 3.53 2.606 8.928 3.959 16.23 4.072v-30.741c-6.122 1.337-10.647 2.803-13.593 4.383v0zM571.272 688.593c-2.097 2.511-3.735 7.457-4.912 14.81h-33.962c-0.255-16.182 6.799-27.633 21.139-34.343 8.125-3.741 20.456-6.252 36.988-7.539v-17.435h12.198v17.614c13 0.707 24.236 3.091 33.711 7.183 15.518 6.666 23.281 17.34 23.281 32.074 0 11.148-5.633 19.794-16.912 25.932-6.846 3.67-20.205 7.92-40.080 12.7v33.387c8.283-0.419 14.015-2.689 17.156-6.843 1.828-2.384 3.058-6.188 3.733-11.39h33.082c-0.504 14.026-7.807 24.159-21.91 30.404-7.767 3.914-18.448 6.252-32.061 7.004v11.841h-12.198v-11.663c-8.558-0.464-15.059-1.192-19.507-2.192-7.288-1.573-13.922-4.423-19.876-8.578-4.615-3.208-8.196-7.042-10.757-11.483-2.557-4.431-3.837-9.375-3.837-14.799 0-8.248 3.289-15.281 9.877-21.112 6.576-5.843 17.881-10.407 33.903-13.669l10.197-2.117v-37.402c-9.572 1.175-15.984 3.706-19.251 7.617v0zM602.72 715.499c6.959-1.817 11.899-3.574 14.805-5.264 4.894-2.912 7.334-6.896 7.334-11.916 0-6.603-2.606-11.241-7.825-13.932-2.996-1.51-7.769-2.561-14.313-3.153l-0.001 34.266zM576.925 746.421c-5.285 2.868-7.916 6.75-7.916 11.657 0 4.493 1.753 8.056 5.284 10.648 3.524 2.588 8.922 3.958 16.23 4.073v-30.762c-6.13 1.357-10.655 2.802-13.598 4.383v0z" />
<glyph unicode="&#xe69f;" glyph-name="jg" d="M1015.725 96.993c0-57.881-22.555-112.311-63.507-153.252-40.915-40.921-95.329-63.459-153.216-63.459s-112.305 22.539-153.237 63.459c-40.948 40.942-63.502 95.371-63.502 153.252 0 22.496 3.569 44.95 10.613 66.752l3.927 12.215-122.646 73.602-8.934-9.255-1.934-2.138c-50.791-50.902-118.045-79.084-189.108-79.084-71.032 0-137.805 27.658-188.017 77.876-50.234 50.25-77.903 117.023-77.903 188.039s27.669 137.788 77.903 188.028c50.219 50.229 116.992 77.887 188.018 77.887 57.952 0 113.117-18.499 159.537-53.51l7.967-6.039 156.999 78.519v9.993c0 92.55 75.146 167.841 167.514 167.841s167.514-75.152 167.514-167.52-75.146-167.509-167.514-167.509c-55.844 0-107.865 27.819-139.151 74.414l-7.93 11.777-125.706-62.85 8.961-14.94c24.687-41.22 37.742-88.276 37.742-136.089 0-35.406-6.808-69.765-20.236-102.103l-5.349-12.867 119.753-71.871 8.923 9.245 1.859 2.084c41.253 41.294 96.029 64.219 153.937 64.219 57.887 0 112.301-22.539 153.216-63.459 40.953-40.944 63.507-95.372 63.507-153.253zM654.908 96.993c0-79.448 64.641-144.094 144.094-144.094 79.442 0 144.072 64.646 144.072 144.094s-64.63 144.094-144.072 144.094c-79.453 0-144.094-64.646-144.094-144.094zM671.318 720.199c0-52.324 42.561-94.89 94.88-94.89s94.885 42.566 94.885 94.89-42.566 94.901-94.885 94.901c-52.319 0-94.88-42.578-94.88-94.901zM80.911 425.001c0-106.582 86.699-193.297 193.27-193.297 106.582 0 193.286 86.715 193.286 193.297s-86.704 193.298-193.286 193.297c-106.571 0-193.27-86.715-193.27-193.297z" />
<glyph unicode="&#xe7a0;" glyph-name="qq" d="M663.086-45.618c-53.916 0-103.882 13.943-135.972 37.783-10.569-0.591-19.891-0.591-30.315 0-32.090-23.84-82.041-37.783-136.004-37.783-101.643 0-175.465 45.553-175.465 108.246 0 30.46 17.924 57.833 50.062 77.388-0.512 0.799-1.007 1.519-1.472 2.271-18.803-13.767-39.669-17.668-58.856-11.208-57.257 19.426-60.375 119.455-34.264 203.638 14.007 44.994 39.797 80.281 61.35 103.706-0.272 3.022-0.367 6.012-0.367 8.986 0 24.335 6.348 48.095 18.82 70.64 0 0.288 0 0.671 0 1.007 0 162.386 130.807 294.553 291.579 294.553 160.755 0 291.514-132.166 291.514-294.553 0-0.080 0-0.208 0-0.304 12.775-22.705 19.219-46.672 19.219-71.344 0-3.309-0.096-6.46-0.352-9.69 21.25-23.297 46.768-58.312 60.647-102.97 26.142-84.215 23.024-184.243-34.297-203.67-19.155-6.507-39.893-2.558-58.649 11.080-0.528-0.751-0.992-1.519-1.519-2.223 31.995-19.651 49.87-46.881 49.87-77.308 0.001-62.692-73.821-108.245-175.529-108.245v0zM534.006 35.591c5.165 0 10.153-1.839 14.054-5.196 23.616-20.386 67.682-33.033 115.026-33.033 73.103 0 132.55 29.244 132.55 65.267 0 19.043-17.205 37.175-47.2 49.695-6.204 2.558-10.856 7.931-12.504 14.391-1.727 6.507-0.272 13.431 3.837 18.675 10.122 12.888 19.075 26.654 26.67 40.964 3.406 6.299 9.658 10.585 16.725 11.288 7.307 0.799 14.182-2.047 18.772-7.595 8.394-9.994 21.825-22.161 33.241-18.292 21.921 7.499 29.996 76.173 6.955 150.235-12.903 41.636-38.374 73.71-57.498 93.265-4.797 4.877-6.987 11.752-5.836 18.547 0.784 4.749 1.135 9.162 1.135 13.607 0 18.675-5.452 37.063-16.245 54.651-2.286 3.726-3.437 8.138-3.118 12.584 0.096 1.519 0.144 2.894 0.144 4.414 0 138.754-111.477 251.574-248.535 251.574-137.075 0-248.6-112.82-248.6-251.574 0-1.646 0.112-3.326 0.208-4.909 0.304-4.461-0.736-8.858-3.086-12.68-10.569-17.413-15.941-35.592-15.941-54.059 0-4.238 0.367-8.602 1.103-13.143 1.040-6.716-1.151-13.559-5.9-18.371-19.315-19.73-45.105-52.013-58.121-93.905-22.976-74.062-14.902-142.735 7.035-150.154 11.592-4.077 24.943 8.314 33.385 18.42 4.573 5.452 11.512 8.362 18.755 7.563 7.067-0.719 13.399-5.005 16.725-11.288 7.563-14.326 16.501-28.093 26.67-41.012 4.125-5.324 5.532-12.263 3.806-18.723-1.679-6.507-6.316-11.832-12.504-14.358-30.124-12.504-47.408-30.667-47.408-49.806 0-36.023 59.432-65.267 132.486-65.267 47.408 0 91.474 12.647 115.122 33.033 4.286 3.726 9.738 5.66 15.67 5.148 14.438-1.119 26.014-1.119 40.852 0 0.512 0.046 1.040 0.046 1.568 0.046v0z" />
<glyph unicode="&#xe7a6;" glyph-name="animate" d="M963.781 564.342h-602.348c-33.201 0-60.219-27.097-60.219-60.219v-542.169c0-33.162 27.057-60.219 60.219-60.219h602.348c33.201 0 60.219 27.097 60.219 60.219v542.129c0 33.162-27.057 60.258-60.219 60.258zM421.652-38.085h-60.219v60.219h60.219v-60.219zM421.652 82.393h-60.219v60.298h60.219v-60.298zM421.652 202.91h-60.219v60.219h60.219v-60.219zM421.652 323.387h-60.219v60.219h60.219v-60.219zM421.652 443.825h-60.219v60.258h60.219v-60.258zM843.264-38.085h-361.393v240.994h361.393v-240.994zM843.264 263.168h-361.393v240.916h361.393v-240.916zM963.781-38.085h-60.219v60.219h60.219v-60.219zM963.781 82.393h-60.219v60.298h60.219v-60.298zM963.781 202.91h-60.219v60.219h60.219v-60.219zM963.781 323.387h-60.219v60.219h60.219v-60.219zM963.781 443.825h-60.219v60.258h60.219v-60.258zM180.697 806.046h361.433v-181.484h180.697v181.484c0 33.162-27.057 60.219-60.219 60.219h-602.388c-33.162 0.039-60.219-27.057-60.219-60.219v-542.129c0-33.162 27.057-60.219 60.219-60.219h180.736v60.219h-60.258v240.955h60.258v60.219h-60.258v240.955zM602.348 806.046h60.219v-60.219h-60.219v60.219zM602.348 685.607h60.219v-60.219h-60.219v60.219zM120.478 263.916h-60.258v60.219h60.219v-60.219zM120.478 384.394h-60.258v60.258h60.219v-60.258zM120.478 504.871h-60.258v60.219h60.219v-60.219zM120.478 625.349h-60.258v60.258h60.219v-60.258zM120.478 745.826h-60.258v60.219h60.219v-60.219z" />
<glyph unicode="&#xe899;" glyph-name="js" d="M366.546 729.452v-447.764c0-94.468-21.916-163.608-65.142-205.494-38.77-37.566-95.594-55.832-173.706-55.832-27.28 0-58.592 3.4-84.51 8.834l9.296 69.332c16.242-2.886 35.148-4.886 56.304-4.886 49.816 0 86.116 14.682 110.968 44.878 25.718 31.24 37.698 77.108 37.698 144.35v446.588h109.092M402.908 765.814h-181.816v-482.95c0-119.5-40.984-152.864-112.3-152.864-33.418 0-63.516 5.732-86.934 13.782l-18.95-141.382c33.408-11.504 84.682-18.4 124.79-18.4 163.746 0 275.21 76.982 275.21 297.684v484.136zM799.414 747.638c55.588 0 104.312-7.15 147.954-21.786l-21.778-72.866c-30.938 12.51-73.946 24.856-128.38 24.856-42.29 0-78.32-10.416-104.202-30.13-26.662-20.308-41.35-49.052-41.35-80.94 0-79.488 75.142-109.432 162.152-144.102l0.244-0.098 0.246-0.094c61.31-23.406 104.404-50.594 131.748-83.116 26.386-31.39 38.67-67.96 38.67-115.1 0-57.218-21.21-106.158-61.342-141.534-46.25-40.768-116.856-62.32-204.19-62.32-63.754 0-124.312 14.606-165.036 31.768l17.256 71.828c39.952-16.47 95.188-32.688 157.812-32.688 46.092 0 83.248 10.18 110.436 30.242 29.106 21.48 45.132 53.856 45.132 91.182 0 34.884-13.732 63.458-41.972 87.37-23.086 19.552-56.364 36.47-107.882 54.854-61.046 22.508-107.636 49.882-138.488 81.352-32.36 33.010-48.094 70.798-48.094 115.512 0 54.886 22.344 102.502 64.612 137.706 45.638 38.008 110.104 58.098 186.44 58.098M799.414 784c-176.006 0-287.414-99.996-287.414-232.166 0-113.822 85.798-185.092 210.548-231.056 90.23-32.18 125.892-60.93 125.892-108.044 0-51.716-41.228-85.056-119.2-85.056-72.414 0-138.156 24.184-182.712 48.306v0.048l-34.522-143.684c42.36-24.18 121.456-48.306 207.198-48.306 206.106 0.004 301.894 110.346 301.894 240.22 0 110.342-61.266 181.592-193.812 232.19-98.044 39.068-139.25 60.898-139.25 110.32 0 39.092 35.654 74.702 109.19 74.702 72.38 0 122.146-24.336 151.148-39.298l43.464 145.454c-45.454 19.956-106.678 36.364-192.412 36.364v0z" />
<glyph unicode="&#xe8ee;" glyph-name="c3" d="M801.221 134.477l-221.87-63.278-221.528 63.559-15.179 174.996h108.567l7.727-89.017 120.57-34.12 0.299-0.616h0.075l120.304 33.414 12.624 144.331h-252.86l-9.001 112.502h271.455l9.891 114.747h-414.095l-9.001 110.25h541.304l-49.282-566.768zM147.202 888l78.608-907.43 352.873-100.57 353.802 100.589 78.715 907.411h-863.998zM865.042 36.354l-286.339-81.418-285.451 81.382-67.536 779.688h706.962l-67.636-779.645z" />
<glyph unicode="&#xea0a;" glyph-name="github" horiz-adv-x="1049" d="M524.95 864c-272.159 0-492.167-220.008-492.167-492.167 0-217.565 140.97-401.721 336.532-466.907 24.447-4.89 33.408 10.591 33.408 23.63 0 11.408-0.813 50.521-0.813 91.263-136.893-29.334-165.414 58.668-165.414 58.668-22 57.038-54.594 71.707-54.594 71.707-44.816 30.15 3.261 30.15 3.261 30.15 49.707-3.261 75.781-50.521 75.781-50.521 44.003-74.968 114.893-53.781 143.414-40.743 4.074 31.778 17.113 53.781 30.965 66.003-109.189 11.408-224.082 53.781-224.082 242.825 0 53.781 19.556 97.781 50.521 132.006-4.89 12.222-22 62.742 4.89 130.375 0 0 41.556 13.039 135.266-50.521 39.112 10.591 81.485 16.295 123.041 16.295s83.929-5.704 123.041-16.295c93.707 63.559 135.266 50.521 135.266 50.521 26.891-67.633 9.778-118.154 4.89-130.375 31.778-34.225 50.521-78.224 50.521-132.006 0-189.044-114.893-230.603-224.899-242.825 17.926-15.482 33.408-44.816 33.408-91.263 0-66.003-0.813-118.967-0.813-135.266 0-13.039 8.965-28.521 33.408-23.63 195.565 65.19 336.532 249.342 336.532 466.907 0.813 272.159-220.008 492.167-491.354 492.167zM219.38 157.529c-0.813-2.444-4.89-3.261-8.148-1.63s-5.704 4.89-4.074 7.335c0.813 2.444 4.89 3.261 8.148 1.63s4.89-4.89 4.074-7.335zM238.936 135.525c-2.444-2.444-7.335-0.813-9.778 2.444-3.261 3.261-4.074 8.148-1.63 10.591s6.517 0.813 9.778-2.444c3.261-4.074 4.074-8.965 1.63-10.591zM258.492 107.008c-3.261-2.444-8.148 0-10.591 4.074-3.261 4.074-3.261 9.778 0 11.408 3.261 2.444 8.148 0 10.591-4.074 3.261-4.074 3.261-8.965 0-11.408zM285.383 79.3c-2.444-3.261-8.148-2.444-13.039 1.63-4.074 4.074-5.704 9.778-2.444 12.222 2.444 3.261 8.148 2.444 13.039-1.63 4.074-3.261 4.89-8.965 2.444-12.222zM322.052 63.818c-0.813-4.074-6.517-5.704-12.222-4.074s-8.965 6.517-8.148 9.778c0.813 4.074 6.517 5.704 12.222 4.074s8.965-5.704 8.148-9.778zM361.981 60.561c0-4.074-4.89-7.335-10.591-7.335s-10.591 3.261-10.591 7.335 4.89 7.335 10.591 7.335c5.704 0 10.591-3.261 10.591-7.335zM399.463 67.079c0.813-4.074-3.261-8.148-8.965-8.965s-10.591 1.63-11.408 5.704c-0.813 4.074 3.261 8.148 8.965 8.965s10.591-1.63 11.408-5.704zM399.463 67.079" />
</font>
</defs>
</svg>
